<svg width="279" height="263" viewBox="0 0 279 263" fill="none" xmlns="http://www.w3.org/2000/svg">
<g clip-path="url(#clip0_201_65)">
<path d="M138.614 209.837C145.587 202.737 157.133 202.982 164.105 210.081C164.947 210.939 165.687 211.86 166.326 212.83C166.358 212.879 166.39 212.928 166.421 212.977C171.862 221.188 187.763 221.655 194.262 215.038C201.235 207.941 201.476 196.184 194.502 189.084C201.474 196.184 212.78 196.185 219.753 189.085C226.726 181.986 226.966 170.231 219.992 163.13C226.965 170.229 238.271 170.231 245.243 163.131C249.384 158.917 251.173 153.149 250.485 147.671L251.697 146.927C282.663 115.4 282.82 63.8078 251.854 32.2809C220.889 0.754686 170.452 -2.07764 139.486 29.4493C108.234 -2.5477 57.383 -5.56995 25.176 27.2222C-5.78905 58.7477 -1.46807 114.261 29.4969 145.788L40.3689 156.985C41.2199 154.413 42.6509 151.997 44.6629 149.949L62.3799 131.91C69.3539 124.811 80.6589 125.121 87.6319 132.221C94.6049 139.32 94.6029 150.831 87.6309 157.93C94.6039 150.828 106.151 151.075 113.122 158.174C120.097 165.274 120.335 176.719 113.362 183.818C120.337 176.718 131.643 177.029 138.614 184.127C145.587 191.227 145.586 202.737 138.614 209.837Z" fill="#57B766"/>
<path d="M70.154 175.903L87.631 157.93C94.603 150.831 94.605 139.32 87.632 132.221C80.659 125.121 69.354 124.811 62.38 131.91L44.663 149.949C42.651 151.997 41.22 154.413 40.369 156.985C40.298 157.198 40.231 157.412 40.169 157.627C38.371 163.811 39.868 170.777 44.663 175.658C51.635 182.758 63.181 183.002 70.154 175.903Z" fill="#57B766"/>
<path d="M95.6459 201.856L113.362 183.818C120.335 176.719 120.097 165.274 113.122 158.174C106.151 151.075 94.6039 150.828 87.6309 157.93L70.1539 175.903C63.1829 183.002 63.1809 194.511 70.1529 201.611C77.1269 208.71 88.6719 208.955 95.6459 201.856Z" fill="#57B766"/>
<path d="M121.137 227.809L138.614 209.837C145.586 202.737 145.587 191.227 138.614 184.127C131.643 177.029 120.337 176.718 113.362 183.818L95.646 201.856C88.673 208.954 88.671 220.465 95.646 227.565C102.618 234.664 114.163 234.909 121.137 227.809Z" fill="#57B766"/>
<path d="M121.136 253.518C128.109 260.617 139.415 260.928 146.388 253.828L164.105 235.789C170.193 229.591 170.966 220.029 166.421 212.977C166.389 212.929 166.357 212.88 166.326 212.83C165.687 211.86 164.947 210.939 164.105 210.081C157.133 202.982 145.587 202.737 138.614 209.837L121.137 227.809C114.166 234.909 114.163 246.418 121.136 253.518Z" fill="#57B766"/>
<path d="M121.137 227.809C114.166 234.909 114.163 246.418 121.136 253.518C128.109 260.617 139.415 260.928 146.388 253.828L164.105 235.789C170.193 229.591 170.966 220.029 166.421 212.977M121.137 227.809L138.614 209.837M121.137 227.809C114.163 234.909 102.618 234.664 95.6459 227.565C88.6709 220.465 88.6729 208.954 95.6459 201.856M166.421 212.977C171.862 221.188 187.763 221.655 194.262 215.038C201.235 207.941 201.476 196.184 194.502 189.084M166.421 212.977C166.39 212.928 166.358 212.879 166.326 212.83M166.421 212.977C166.389 212.929 166.357 212.88 166.326 212.83M138.614 209.837C145.587 202.737 157.133 202.982 164.105 210.081C164.947 210.939 165.687 211.86 166.326 212.83M138.614 209.837C145.586 202.737 145.587 191.227 138.614 184.127C131.643 177.029 120.337 176.718 113.362 183.818M95.6459 201.856L113.362 183.818M95.6459 201.856C88.6719 208.955 77.1269 208.71 70.1529 201.611C63.1809 194.511 63.1829 183.002 70.1539 175.903M194.502 189.084C201.474 196.184 212.78 196.185 219.753 189.085C226.726 181.986 226.966 170.231 219.992 163.13M194.502 189.084L141.79 135.415M113.362 183.818C120.335 176.719 120.097 165.274 113.122 158.174C106.151 151.075 94.6039 150.828 87.6309 157.93M70.1539 175.903L87.6309 157.93M70.1539 175.903C63.1809 183.002 51.6349 182.758 44.6629 175.658C39.8679 170.777 38.3709 163.811 40.1689 157.627C40.2309 157.412 40.2979 157.198 40.3689 156.985M219.992 163.13C226.965 170.229 238.271 170.231 245.243 163.131C249.384 158.917 251.173 153.149 250.485 147.671M219.992 163.13L167.345 109.707M87.6309 157.93C94.6029 150.831 94.6049 139.32 87.6319 132.221C80.6589 125.121 69.3539 124.811 62.3799 131.91L44.6629 149.949C42.6509 151.997 41.2199 154.413 40.3689 156.985M40.3689 156.985L29.4969 145.788C-1.46807 114.261 -5.78905 58.7477 25.176 27.2222C57.383 -5.56995 108.234 -2.5477 139.486 29.4493M139.486 29.4493L111.611 59.365C102.753 69.2819 85.4949 82.9416 95.4059 96.1888C103.606 107.149 126.132 99.0027 136.239 88.5466L166.781 57.4236M139.486 29.4493C170.452 -2.07764 220.889 0.754686 251.854 32.2809C282.82 63.8079 282.663 115.4 251.697 146.927L250.485 147.671M250.485 147.671C250.015 143.921 248.382 140.308 245.548 137.423L167.287 57.7421" stroke="white" stroke-width="7" stroke-linecap="round" stroke-linejoin="round"/>
</g>
<defs>
<clipPath id="clip0_201_65">
<rect width="279" height="263" fill="white"/>
</clipPath>
</defs>
</svg>
