<svg width="876" height="336" viewBox="0 0 876 336" fill="none" xmlns="http://www.w3.org/2000/svg">
<path d="M32.9554 199.426C30.8231 199.426 28.7762 198.484 26.8145 196.599C24.9382 194.715 24 192.745 24 190.689C24 188.633 24.2985 187.005 24.8955 185.806L95.1311 24.5529C95.7281 23.268 96.8369 21.9831 98.4574 20.6983C100.163 19.4134 101.826 18.7709 103.447 18.7709C108.052 18.7709 111.165 20.6983 112.786 24.5529L183.149 185.549C183.661 186.663 183.917 187.905 183.917 189.275C183.917 191.674 183.107 193.944 181.486 196.085C179.951 198.141 177.947 199.169 175.473 199.169C170.441 199.169 167.115 197.199 165.495 193.259L139.78 134.282H68.6488L42.4224 193.516C40.8019 197.456 37.6463 199.426 32.9554 199.426ZM103.959 52.5635L76.9645 115.009H131.336L103.959 52.5635Z" fill="#EF4444"/>
<path d="M216.924 45.2396C213.256 45.2396 210.015 43.9119 207.201 41.2565C204.472 38.601 203.107 35.3888 203.107 31.6198C203.107 27.8508 204.472 24.6386 207.201 21.9831C210.015 19.3277 213.256 18 216.924 18C220.677 18 223.918 19.3277 226.647 21.9831C229.376 24.6386 230.741 27.8508 230.741 31.6198C230.741 35.3888 229.376 38.601 226.647 41.2565C223.918 43.9119 220.677 45.2396 216.924 45.2396ZM207.585 73.1216C207.585 70.8945 208.608 68.9672 210.655 67.3397C212.702 65.6265 214.621 64.7699 216.412 64.7699C219.397 64.7699 221.871 65.6693 223.832 67.4681C225.794 69.267 226.775 71.6226 226.775 74.535L227.031 189.789C227.031 192.445 226.092 194.715 224.216 196.599C222.34 198.484 220.08 199.426 217.436 199.426C214.792 199.426 212.532 198.441 210.655 196.471C208.779 194.586 207.841 192.316 207.841 189.661L207.585 73.1216Z" fill="#EF4444"/>
<path d="M318.503 199.169C306.904 199.169 296.627 196.085 287.671 189.918C278.716 183.75 271.679 175.656 266.562 165.633C261.445 155.526 258.886 144.69 258.886 133.126C258.886 124.389 260.379 115.951 263.364 107.814C266.349 99.676 270.571 92.4378 276.029 86.099C281.488 79.6746 287.927 74.5779 295.347 70.8088C302.767 67.0398 310.87 65.1553 319.655 65.1553C328.013 65.1553 335.646 67.254 342.555 71.4513C349.463 75.6486 355.519 80.4883 360.721 85.9705V27.8936C360.721 25.2382 361.659 22.9682 363.536 21.0837C365.412 19.1992 367.672 18.257 370.316 18.257C373.046 18.257 375.306 19.1992 377.097 21.0837C378.973 22.9682 379.911 25.2382 379.911 27.8936V189.661C379.911 192.316 378.973 194.586 377.097 196.471C375.22 198.355 372.96 199.298 370.316 199.298C367.672 199.298 365.497 198.355 363.792 196.471C362.171 194.586 361.361 192.316 361.361 189.661L360.721 177.326C355.86 182.294 349.847 187.177 342.683 191.974C335.518 196.771 327.459 199.169 318.503 199.169ZM318.887 179.896C327.586 179.896 335.049 177.54 341.275 172.829C347.501 168.118 352.278 162.036 355.604 154.583C358.93 147.131 360.593 139.379 360.593 131.327C360.593 123.275 358.93 115.694 355.604 108.585C352.363 101.475 347.672 95.6928 341.531 91.2385C335.39 86.6986 328.013 84.4286 319.399 84.4286C311.126 84.4286 303.919 86.8271 297.778 91.624C291.637 96.3353 286.861 102.46 283.449 109.998C280.038 117.45 278.332 125.288 278.332 133.511C278.332 141.649 279.995 149.273 283.321 156.382C286.733 163.406 291.467 169.103 297.522 173.471C303.663 177.754 310.785 179.896 318.887 179.896Z" fill="#EF4444"/>
<path d="M419.571 18.6424C422.726 18.6424 425.2 19.7132 426.991 21.8547C428.867 23.9105 429.805 26.0948 429.805 28.4076V191.588C429.805 193.815 428.782 195.743 426.735 197.37C424.773 198.998 422.854 199.811 420.978 199.811C418.078 199.811 415.605 198.912 413.558 197.113C411.596 195.314 410.615 193.002 410.615 190.175V28.6646C410.615 26.1804 411.511 23.9105 413.302 21.8547C415.093 19.7132 417.183 18.6424 419.571 18.6424Z" fill="#EF4444"/>
<path d="M461.149 64.6414C462.94 64.6414 464.646 65.1982 466.267 66.3117C467.972 67.4253 469.166 68.753 469.849 70.2949L516.544 171.672L556.46 70.9373C557.142 69.2242 558.336 67.7679 560.042 66.5687C561.748 65.3695 563.539 64.7699 565.415 64.7699C568.741 64.7699 571.343 66.1833 573.219 69.01C575.181 71.7511 575.522 74.792 574.242 78.1327L517.824 220.241C515.35 226.409 512.024 232.705 507.845 239.129C503.666 245.553 498.463 250.95 492.237 255.319C486.011 259.773 478.591 262 469.977 262C467.333 262 465.072 261.058 463.196 259.173C461.32 257.289 460.382 255.019 460.382 252.363C460.382 249.879 461.277 247.652 463.068 245.682C464.859 243.797 466.991 242.812 469.465 242.727C475.35 242.298 480.254 240.542 484.177 237.459C488.101 234.461 491.384 230.606 494.028 225.895C496.757 221.269 499.06 216.301 500.937 210.99C502.898 205.765 504.817 200.797 506.694 196.085L452.45 78.5182C451.853 77.1476 451.554 75.7342 451.554 74.278C451.554 71.6226 452.492 69.3526 454.369 67.4681C456.245 65.5836 458.505 64.6414 461.149 64.6414Z" fill="#EF4444"/>
<path d="M715.614 209.837C722.587 202.737 734.133 202.982 741.105 210.081C741.947 210.939 742.687 211.86 743.326 212.83C743.358 212.879 743.39 212.928 743.421 212.977C748.862 221.188 764.763 221.655 771.262 215.038C778.235 207.941 778.476 196.184 771.502 189.084C778.474 196.184 789.78 196.185 796.753 189.085C803.726 181.986 803.966 170.231 796.992 163.13C803.965 170.229 815.271 170.231 822.243 163.131C826.384 158.917 828.173 153.149 827.485 147.671L828.697 146.927C859.663 115.4 859.82 63.8078 828.854 32.2809C797.889 0.7547 747.452 -2.07764 716.486 29.4493C685.234 -2.5477 634.383 -5.56995 602.176 27.2222C571.211 58.7477 575.532 114.261 606.497 145.788L617.369 156.985C618.22 154.413 619.651 151.997 621.663 149.949L639.38 131.91C646.354 124.811 657.659 125.121 664.632 132.221C671.605 139.32 671.603 150.831 664.631 157.93C671.604 150.828 683.151 151.075 690.122 158.174C697.097 165.274 697.335 176.719 690.362 183.818C697.337 176.718 708.643 177.029 715.614 184.127C722.587 191.227 722.586 202.737 715.614 209.837Z" fill="#EF4444"/>
<path d="M647.154 175.903L664.631 157.93C671.603 150.831 671.605 139.32 664.632 132.221C657.659 125.121 646.354 124.811 639.38 131.91L621.663 149.949C619.651 151.997 618.22 154.413 617.369 156.985C617.298 157.198 617.231 157.412 617.169 157.627C615.371 163.811 616.868 170.777 621.663 175.658C628.635 182.758 640.181 183.002 647.154 175.903Z" fill="#EF4444"/>
<path d="M672.646 201.856L690.362 183.818C697.335 176.719 697.097 165.274 690.122 158.174C683.151 151.075 671.604 150.828 664.631 157.93L647.154 175.903C640.183 183.002 640.181 194.511 647.153 201.611C654.127 208.71 665.672 208.955 672.646 201.856Z" fill="#EF4444"/>
<path d="M698.137 227.809L715.614 209.837C722.586 202.737 722.587 191.227 715.614 184.127C708.643 177.029 697.337 176.718 690.362 183.818L672.646 201.856C665.673 208.954 665.671 220.465 672.646 227.565C679.618 234.664 691.163 234.909 698.137 227.809Z" fill="#EF4444"/>
<path d="M698.136 253.518C705.109 260.617 716.415 260.928 723.388 253.828L741.105 235.789C747.193 229.591 747.966 220.029 743.421 212.977C743.389 212.929 743.357 212.88 743.326 212.83C742.687 211.86 741.947 210.939 741.105 210.081C734.133 202.982 722.587 202.737 715.614 209.837L698.137 227.809C691.166 234.909 691.163 246.418 698.136 253.518Z" fill="#EF4444"/>
<path d="M698.137 227.809C691.166 234.909 691.163 246.418 698.136 253.518C705.109 260.617 716.415 260.928 723.388 253.828L741.105 235.789C747.193 229.591 747.966 220.029 743.421 212.977M698.137 227.809L715.614 209.837M698.137 227.809C691.163 234.909 679.618 234.664 672.646 227.565C665.671 220.465 665.673 208.954 672.646 201.856M715.614 209.837C722.587 202.737 734.133 202.982 741.105 210.081C741.947 210.939 742.687 211.86 743.326 212.83M715.614 209.837C722.586 202.737 722.587 191.227 715.614 184.127C708.643 177.029 697.337 176.718 690.362 183.818M672.646 201.856L690.362 183.818M672.646 201.856C665.672 208.955 654.127 208.71 647.153 201.611C640.181 194.511 640.183 183.002 647.154 175.903M690.362 183.818C697.335 176.719 697.097 165.274 690.122 158.174C683.151 151.075 671.604 150.828 664.631 157.93M647.154 175.903L664.631 157.93M647.154 175.903C640.181 183.002 628.635 182.758 621.663 175.658C616.868 170.777 615.371 163.811 617.169 157.627C617.231 157.412 617.298 157.198 617.369 156.985M664.631 157.93C671.603 150.831 671.605 139.32 664.632 132.221C657.659 125.121 646.354 124.811 639.38 131.91L621.663 149.949C619.651 151.997 618.22 154.413 617.369 156.985M617.369 156.985L606.497 145.788C575.532 114.261 571.211 58.7477 602.176 27.2222C634.383 -5.56995 685.234 -2.5477 716.486 29.4493M743.781 57.4236L713.239 88.5466C703.132 99.0027 680.606 107.149 672.406 96.1888C662.495 82.9416 679.753 69.2819 688.611 59.365L716.486 29.4493M716.486 29.4493C747.452 -2.07764 797.889 0.7547 828.854 32.2809C859.82 63.8079 859.663 115.4 828.697 146.927L827.485 147.671M744.287 57.7421L822.548 137.423C825.382 140.308 827.015 143.921 827.485 147.671M796.992 163.13C803.965 170.229 815.271 170.231 822.243 163.131C826.384 158.917 828.173 153.149 827.485 147.671M796.992 163.13L744.345 109.707M796.992 163.13C803.966 170.231 803.726 181.986 796.753 189.085C789.78 196.185 778.474 196.184 771.502 189.084M771.502 189.084L718.79 135.415M771.502 189.084C778.476 196.184 778.235 207.941 771.262 215.038C764.763 221.655 748.862 221.188 743.421 212.977M743.326 212.83C743.358 212.879 743.39 212.928 743.421 212.977M743.326 212.83C743.357 212.88 743.389 212.929 743.421 212.977" stroke="white" stroke-width="7" stroke-linecap="round" stroke-linejoin="round"/>
<path d="M3.13593 316.663C4.24097 316.663 5.10709 316.99 5.73427 317.644C6.39133 318.267 6.71985 319.054 6.71985 320.005V320.05C6.71985 322.485 7.61583 324.594 9.40779 326.376C11.1998 328.158 13.3501 329.05 15.8589 329.05C19.0246 329.05 21.4737 328.173 23.2059 326.421C24.968 324.668 26.1925 322.351 26.8794 319.47C27.5962 316.559 27.9546 313.381 27.9546 309.936V308.421L27.5066 276.609V276.52C27.5066 275.629 27.8351 274.856 28.4922 274.203C29.1791 273.52 29.9705 273.178 30.8665 273.178C31.7924 273.178 32.5838 273.505 33.2409 274.158C33.8979 274.812 34.2264 275.599 34.2264 276.52L34.6744 308.332V309.936C34.6744 314.777 34.0473 319.144 32.7929 323.035C31.5385 326.926 29.5375 330 26.7898 332.257C24.0421 334.515 20.4284 335.644 15.9485 335.644C12.9917 335.644 10.3038 334.96 7.88463 333.594C5.46548 332.228 3.53912 330.371 2.10555 328.025C0.701851 325.649 0 322.975 0 320.005C0 319.144 0.313593 318.371 0.940779 317.688C1.59783 317.005 2.32955 316.663 3.13593 316.663Z" fill="#0F172A"/>
<path d="M80.011 336C79.0852 336 78.3236 335.673 77.7263 335.02C77.1588 334.366 76.8751 333.579 76.8751 332.658L76.6511 327.356C75.6058 328.634 74.3664 329.941 72.9328 331.277C71.4992 332.584 69.8715 333.683 68.0497 334.574C66.2279 335.436 64.1671 335.866 61.8674 335.866C57.9251 335.866 54.7444 334.856 52.3253 332.837C49.9061 330.817 48.144 328.158 47.039 324.861C45.9638 321.564 45.4262 318.03 45.4262 314.257L45.471 292.649C45.471 291.728 45.7995 290.941 46.4566 290.287C47.1136 289.634 47.9051 289.307 48.8309 289.307C49.7866 289.307 50.5781 289.634 51.2053 290.287C51.8623 290.941 52.1909 291.743 52.1909 292.693L52.1461 314.257C52.1461 316.871 52.4149 319.322 52.9524 321.609C53.49 323.866 54.4607 325.693 55.8644 327.089C57.2979 328.485 59.299 329.183 61.8674 329.183C66.7356 329.183 70.4091 327.891 72.888 325.307C75.3669 322.723 76.6063 319.084 76.6063 314.391V292.559C76.6063 291.639 76.9348 290.851 77.5919 290.198C78.2489 289.545 79.0404 289.218 79.9662 289.218C80.922 289.218 81.7134 289.545 82.3406 290.198C82.9977 290.851 83.3262 291.653 83.3262 292.604L83.371 332.614C83.371 333.535 83.0424 334.322 82.3854 334.975C81.7582 335.658 80.9668 336 80.011 336Z" fill="#0F172A"/>
<path d="M97.5275 289.084C98.4533 289.084 99.2 289.411 99.7674 290.064C100.365 290.718 100.663 291.505 100.663 292.426L100.887 297.728C101.963 296.421 103.202 295.114 104.606 293.807C106.039 292.5 107.667 291.416 109.489 290.554C111.34 289.663 113.401 289.218 115.671 289.218C119.643 289.218 122.824 290.228 125.213 292.248C127.632 294.267 129.38 296.926 130.455 300.223C131.56 303.49 132.112 307.025 132.112 310.827L132.068 332.436C132.068 333.356 131.739 334.144 131.082 334.797C130.425 335.45 129.633 335.777 128.708 335.777C127.782 335.777 126.99 335.45 126.333 334.797C125.676 334.114 125.348 333.312 125.348 332.391L125.392 310.827C125.392 308.183 125.124 305.733 124.586 303.475C124.048 301.218 123.078 299.391 121.674 297.995C120.27 296.599 118.269 295.901 115.671 295.901C110.803 295.901 107.129 297.193 104.651 299.777C102.172 302.361 100.932 306 100.932 310.693V332.525C100.932 333.446 100.604 334.233 99.9466 334.886C99.2896 335.54 98.4981 335.866 97.5723 335.866C96.6464 335.866 95.855 335.525 95.1979 334.842C94.5409 334.188 94.2123 333.401 94.2123 332.48L94.1675 292.47C94.1675 291.52 94.4811 290.718 95.1083 290.064C95.7654 289.411 96.5717 289.084 97.5275 289.084Z" fill="#0F172A"/>
<path d="M149.853 279.861C149.853 278.941 150.181 278.153 150.838 277.5C151.495 276.847 152.287 276.52 153.213 276.52C154.138 276.52 154.93 276.847 155.587 277.5C156.244 278.153 156.573 278.941 156.573 279.861L156.528 289.842L165.264 289.886C166.13 289.886 166.861 290.198 167.459 290.822C168.086 291.416 168.4 292.144 168.4 293.005C168.4 293.866 168.086 294.609 167.459 295.233C166.861 295.827 166.13 296.124 165.264 296.124L156.528 296.079L156.483 323.881C156.483 325.455 156.722 326.733 157.2 327.713C157.678 328.663 158.648 329.139 160.112 329.139C161.426 329.139 162.501 328.901 163.337 328.426C164.203 327.921 165.189 327.668 166.294 327.668C167.22 327.668 168.011 327.995 168.668 328.649C169.325 329.302 169.654 330.089 169.654 331.01C169.654 332.257 169.116 333.238 168.041 333.95C166.966 334.663 165.697 335.153 164.233 335.421C162.8 335.718 161.515 335.866 160.38 335.866C156.856 335.866 154.198 334.752 152.406 332.525C150.644 330.267 149.763 327.356 149.763 323.792L149.808 296.124H142.909C142.043 296.124 141.296 295.827 140.669 295.233C140.072 294.609 139.773 293.866 139.773 293.005C139.773 292.144 140.072 291.416 140.669 290.822C141.296 290.198 142.043 289.886 142.909 289.886H149.808L149.853 279.861Z" fill="#0F172A"/>
<path d="M198.773 289.129C201.909 289.129 204.836 289.752 207.554 291C210.272 292.248 212.646 293.97 214.677 296.168C216.738 298.337 218.335 300.817 219.47 303.609C220.635 306.401 221.218 309.356 221.218 312.475C221.218 316.604 220.232 320.436 218.261 323.97C216.29 327.505 213.617 330.371 210.242 332.569C206.897 334.738 203.134 335.837 198.952 335.866C194.711 335.866 190.889 334.782 187.484 332.614C184.079 330.446 181.376 327.594 179.375 324.059C177.404 320.495 176.419 316.634 176.419 312.475C176.419 309.386 176.986 306.446 178.121 303.653C179.286 300.832 180.883 298.337 182.914 296.168C184.945 293.97 187.305 292.248 189.993 291C192.71 289.752 195.637 289.129 198.773 289.129ZM198.773 295.812C195.846 295.812 193.203 296.584 190.844 298.129C188.484 299.673 186.603 301.708 185.199 304.233C183.825 306.728 183.138 309.446 183.138 312.386C183.138 315.356 183.825 318.119 185.199 320.673C186.573 323.228 188.455 325.292 190.844 326.866C193.233 328.411 195.921 329.183 198.908 329.183C201.864 329.153 204.508 328.366 206.837 326.822C209.196 325.248 211.063 323.198 212.437 320.673C213.811 318.149 214.498 315.416 214.498 312.475C214.498 309.535 213.796 306.802 212.392 304.277C211.018 301.723 209.137 299.673 206.747 298.129C204.388 296.584 201.73 295.812 198.773 295.812Z" fill="#0F172A"/>
<path d="M252.308 288.95C256.31 288.95 259.954 289.812 263.239 291.535C266.554 293.257 269.003 295.604 270.586 298.574C270.855 299.05 270.989 299.569 270.989 300.134C270.989 301.025 270.661 301.782 270.004 302.406C269.376 303.03 268.615 303.342 267.719 303.342C267.181 303.342 266.629 303.178 266.061 302.851C265.494 302.495 265.091 302.079 264.852 301.604C263.777 299.584 262.134 298.054 259.924 297.015C257.744 295.946 255.19 295.411 252.263 295.411C250.412 295.411 248.396 295.663 246.215 296.168C244.035 296.644 242.154 297.446 240.571 298.574C239.018 299.673 238.241 301.158 238.241 303.03C238.241 304.485 238.868 305.614 240.123 306.416C241.377 307.218 242.93 307.812 244.782 308.198C246.663 308.554 248.56 308.807 250.471 308.955C252.413 309.104 254.07 309.252 255.444 309.401C258.162 309.668 260.835 310.158 263.463 310.871C266.091 311.584 268.271 312.757 270.004 314.391C271.736 316.025 272.602 318.386 272.602 321.475C272.602 324.802 271.616 327.535 269.645 329.673C267.674 331.782 265.15 333.342 262.074 334.351C258.998 335.332 255.802 335.822 252.487 335.822C247.828 335.822 243.602 334.931 239.809 333.149C236.016 331.337 233.224 328.693 231.432 325.218C231.193 324.802 231.073 324.297 231.073 323.703C231.073 322.812 231.387 322.054 232.014 321.431C232.641 320.807 233.403 320.495 234.299 320.495C234.866 320.495 235.434 320.673 236.001 321.03C236.569 321.356 236.972 321.772 237.211 322.277C238.495 324.713 240.466 326.51 243.124 327.668C245.782 328.797 248.903 329.361 252.487 329.361C254.548 329.361 256.624 329.124 258.714 328.649C260.835 328.144 262.597 327.312 264.001 326.153C265.434 324.995 266.151 323.436 266.151 321.475C266.151 319.931 265.509 318.757 264.225 317.955C262.94 317.124 261.328 316.53 259.386 316.173C257.445 315.817 255.474 315.579 253.473 315.46C251.502 315.342 249.799 315.193 248.366 315.015C245.827 314.718 243.274 314.213 240.705 313.5C238.167 312.757 236.046 311.569 234.344 309.936C232.641 308.302 231.79 306 231.79 303.03C231.79 300.535 232.402 298.411 233.627 296.658C234.881 294.876 236.509 293.421 238.51 292.292C240.541 291.134 242.766 290.287 245.185 289.752C247.604 289.218 249.979 288.95 252.308 288.95Z" fill="#0F172A"/>
<path d="M304.902 312.431C304.902 308.302 305.888 304.5 307.859 301.025C309.83 297.52 312.488 294.698 315.833 292.559C319.178 290.421 322.911 289.351 327.033 289.351C330.079 289.351 332.857 289.916 335.365 291.045C337.874 292.173 340.039 293.658 341.861 295.5C343.683 297.342 345.087 299.361 346.072 301.559C346.311 302.035 346.431 302.51 346.431 302.985C346.431 303.906 346.102 304.693 345.445 305.347C344.788 305.97 343.997 306.282 343.071 306.282C342.474 306.282 341.876 306.104 341.279 305.748C340.682 305.361 340.263 304.886 340.025 304.322C339.009 302.094 337.366 300.149 335.097 298.485C332.827 296.822 330.139 295.99 327.033 295.99C324.136 295.99 321.523 296.762 319.193 298.307C316.863 299.822 315.012 301.842 313.638 304.366C312.264 306.861 311.577 309.564 311.577 312.475C311.577 315.386 312.249 318.104 313.593 320.629C314.967 323.124 316.819 325.144 319.148 326.688C321.508 328.203 324.136 328.96 327.033 328.96C330.139 328.96 332.827 328.144 335.097 326.51C337.396 324.847 339.054 322.901 340.069 320.673C340.308 320.109 340.726 319.634 341.324 319.248C341.921 318.861 342.518 318.668 343.116 318.668C344.042 318.668 344.833 318.995 345.49 319.649C346.147 320.302 346.476 321.089 346.476 322.01C346.476 322.515 346.371 322.975 346.162 323.391C345.176 325.559 343.758 327.579 341.906 329.45C340.084 331.292 337.904 332.777 335.365 333.906C332.857 335.035 330.079 335.599 327.033 335.599C322.881 335.599 319.133 334.53 315.788 332.391C312.443 330.252 309.785 327.431 307.814 323.926C305.873 320.391 304.902 316.559 304.902 312.431Z" fill="#0F172A"/>
<path d="M377.79 289.129C380.926 289.129 383.853 289.752 386.571 291C389.289 292.248 391.663 293.97 393.694 296.168C395.755 298.337 397.352 300.817 398.487 303.609C399.652 306.401 400.234 309.356 400.234 312.475C400.234 316.604 399.249 320.436 397.278 323.97C395.307 327.505 392.634 330.371 389.259 332.569C385.914 334.738 382.151 335.837 377.969 335.866C373.728 335.866 369.905 334.782 366.501 332.614C363.096 330.446 360.393 327.594 358.392 324.059C356.421 320.495 355.435 316.634 355.435 312.475C355.435 309.386 356.003 306.446 357.138 303.653C358.303 300.832 359.9 298.337 361.931 296.168C363.962 293.97 366.322 292.248 369.01 291C371.727 289.752 374.654 289.129 377.79 289.129ZM377.79 295.812C374.863 295.812 372.22 296.584 369.861 298.129C367.501 299.673 365.62 301.708 364.216 304.233C362.842 306.728 362.155 309.446 362.155 312.386C362.155 315.356 362.842 318.119 364.216 320.673C365.59 323.228 367.471 325.292 369.861 326.866C372.25 328.411 374.938 329.183 377.924 329.183C380.881 329.153 383.524 328.366 385.854 326.822C388.213 325.248 390.08 323.198 391.454 320.673C392.828 318.149 393.515 315.416 393.515 312.475C393.515 309.535 392.813 306.802 391.409 304.277C390.035 301.723 388.154 299.673 385.764 298.129C383.405 296.584 380.747 295.812 377.79 295.812Z" fill="#0F172A"/>
<path d="M413.45 289.084C414.376 289.084 415.123 289.411 415.69 290.064C416.287 290.718 416.586 291.505 416.586 292.426L416.81 297.728C417.885 296.421 419.125 295.114 420.528 293.807C421.962 292.5 423.59 291.416 425.411 290.554C427.263 289.663 429.324 289.218 431.594 289.218C435.566 289.218 438.747 290.228 441.136 292.248C443.555 294.267 445.302 296.926 446.377 300.223C447.482 303.49 448.035 307.025 448.035 310.827L447.99 332.436C447.99 333.356 447.662 334.144 447.005 334.797C446.348 335.45 445.556 335.777 444.63 335.777C443.704 335.777 442.913 335.45 442.256 334.797C441.599 334.114 441.27 333.312 441.27 332.391L441.315 310.827C441.315 308.183 441.046 305.733 440.509 303.475C439.971 301.218 439.001 299.391 437.597 297.995C436.193 296.599 434.192 295.901 431.594 295.901C426.726 295.901 423.052 297.193 420.573 299.777C418.094 302.361 416.855 306 416.855 310.693V332.525C416.855 333.446 416.526 334.233 415.869 334.886C415.212 335.54 414.421 335.866 413.495 335.866C412.569 335.866 411.778 335.525 411.121 334.842C410.464 334.188 410.135 333.401 410.135 332.48L410.09 292.47C410.09 291.52 410.404 290.718 411.031 290.064C411.688 289.411 412.494 289.084 413.45 289.084Z" fill="#0F172A"/>
<path d="M465.775 279.861C465.775 278.941 466.104 278.153 466.761 277.5C467.418 276.847 468.209 276.52 469.135 276.52C470.061 276.52 470.853 276.847 471.51 277.5C472.167 278.153 472.495 278.941 472.495 279.861L472.45 289.842L481.186 289.886C482.052 289.886 482.784 290.198 483.381 290.822C484.009 291.416 484.322 292.144 484.322 293.005C484.322 293.866 484.009 294.609 483.381 295.233C482.784 295.827 482.052 296.124 481.186 296.124L472.45 296.079L472.406 323.881C472.406 325.455 472.645 326.733 473.122 327.713C473.6 328.663 474.571 329.139 476.034 329.139C477.348 329.139 478.424 328.901 479.26 328.426C480.126 327.921 481.112 327.668 482.217 327.668C483.142 327.668 483.934 327.995 484.591 328.649C485.248 329.302 485.577 330.089 485.577 331.01C485.577 332.257 485.039 333.238 483.964 333.95C482.889 334.663 481.619 335.153 480.156 335.421C478.722 335.718 477.438 335.866 476.303 335.866C472.779 335.866 470.121 334.752 468.329 332.525C466.567 330.267 465.686 327.356 465.686 323.792L465.731 296.124H458.832C457.965 296.124 457.219 295.827 456.592 295.233C455.994 294.609 455.696 293.866 455.696 293.005C455.696 292.144 455.994 291.416 456.592 290.822C457.219 290.198 457.965 289.886 458.832 289.886H465.731L465.775 279.861Z" fill="#0F172A"/>
<path d="M519.624 293.45C519.624 294.252 519.355 294.995 518.817 295.678C518.28 296.361 517.697 296.703 517.07 296.703C516.144 296.703 515.263 296.495 514.427 296.079C513.621 295.634 512.635 295.411 511.47 295.411C508.544 295.411 506.244 296.035 504.571 297.282C502.899 298.53 501.704 300.134 500.987 302.094C500.301 304.025 499.957 306.074 499.957 308.243V332.525C499.957 333.446 499.673 334.233 499.106 334.886C498.568 335.569 497.732 335.911 496.597 335.911C495.492 335.911 494.656 335.569 494.088 334.886C493.521 334.233 493.237 333.446 493.237 332.525V293.005C493.237 291.906 493.596 291.015 494.312 290.332C495.059 289.649 495.85 289.307 496.687 289.307C497.553 289.307 498.255 289.649 498.792 290.332C499.36 290.985 499.643 291.876 499.643 293.005L500.047 297.906C500.465 296.54 501.241 295.188 502.376 293.851C503.541 292.515 504.9 291.401 506.453 290.51C508.036 289.589 509.634 289.129 511.246 289.129C513.546 289.129 515.517 289.441 517.16 290.064C518.802 290.658 519.624 291.787 519.624 293.45Z" fill="#0F172A"/>
<path d="M544.263 289.173C547.459 289.173 550.326 290.094 552.865 291.936C555.433 293.777 557.673 295.723 559.585 297.772L559.988 292.158C559.988 291.297 560.227 290.569 560.705 289.975C561.182 289.351 561.854 289.04 562.72 289.04C563.587 289.04 564.318 289.351 564.916 289.975C565.543 290.569 565.856 291.297 565.856 292.158V332.436C565.856 333.297 565.543 334.04 564.916 334.663C564.318 335.257 563.587 335.554 562.72 335.554C561.854 335.554 561.108 335.257 560.481 334.663C559.883 334.04 559.585 333.297 559.585 332.436V327.356C557.613 329.495 555.269 331.426 552.551 333.149C549.863 334.871 547.026 335.733 544.039 335.733C540.963 335.733 538.111 335.109 535.483 333.861C532.854 332.584 530.555 330.861 528.584 328.693C526.612 326.525 525.074 324.059 523.969 321.297C522.894 318.505 522.357 315.579 522.357 312.52C522.357 309.49 522.894 306.579 523.969 303.787C525.074 300.965 526.612 298.47 528.584 296.302C530.585 294.104 532.914 292.366 535.572 291.089C538.23 289.812 541.127 289.173 544.263 289.173ZM559.809 312.252C559.809 309.371 559.107 306.698 557.703 304.233C556.329 301.738 554.463 299.718 552.103 298.173C549.774 296.629 547.175 295.856 544.308 295.856C541.411 295.856 538.813 296.644 536.513 298.218C534.213 299.792 532.392 301.856 531.048 304.411C529.733 306.936 529.076 309.639 529.076 312.52C529.076 315.371 529.733 318.059 531.048 320.584C532.362 323.109 534.139 325.158 536.379 326.733C538.648 328.277 541.202 329.05 544.039 329.05C546.906 329.05 549.535 328.262 551.924 326.688C554.313 325.084 556.225 323.005 557.658 320.45C559.092 317.866 559.809 315.134 559.809 312.252Z" fill="#0F172A"/>
<path d="M620.063 289.173C623.259 289.173 626.126 290.094 628.665 291.936C631.233 293.777 633.473 295.723 635.384 297.772L635.788 292.158C635.788 291.297 636.027 290.569 636.504 289.975C636.982 289.351 637.654 289.04 638.52 289.04C639.387 289.04 640.118 289.351 640.716 289.975C641.343 290.569 641.656 291.297 641.656 292.158V332.436C641.656 333.297 641.343 334.04 640.716 334.663C640.118 335.257 639.387 335.554 638.52 335.554C637.654 335.554 636.908 335.257 636.28 334.663C635.683 334.04 635.384 333.297 635.384 332.436V327.356C633.413 329.495 631.069 331.426 628.351 333.149C625.663 334.871 622.826 335.733 619.839 335.733C616.763 335.733 613.911 335.109 611.283 333.861C608.654 332.584 606.355 330.861 604.384 328.693C602.412 326.525 600.874 324.059 599.769 321.297C598.694 318.505 598.156 315.579 598.156 312.52C598.156 309.49 598.694 306.579 599.769 303.787C600.874 300.965 602.412 298.47 604.384 296.302C606.385 294.104 608.714 292.366 611.372 291.089C614.03 289.812 616.927 289.173 620.063 289.173ZM635.608 312.252C635.608 309.371 634.907 306.698 633.503 304.233C632.129 301.738 630.262 299.718 627.903 298.173C625.573 296.629 622.975 295.856 620.108 295.856C617.211 295.856 614.613 296.644 612.313 298.218C610.013 299.792 608.191 301.856 606.847 304.411C605.533 306.936 604.876 309.639 604.876 312.52C604.876 315.371 605.533 318.059 606.847 320.584C608.162 323.109 609.939 325.158 612.179 326.733C614.448 328.277 617.002 329.05 619.839 329.05C622.706 329.05 625.335 328.262 627.724 326.688C630.113 325.084 632.025 323.005 633.458 320.45C634.892 317.866 635.608 315.134 635.608 312.252Z" fill="#0F172A"/>
<path d="M697.431 280.619C696.535 280.619 695.729 280.426 695.012 280.04C694.295 279.624 693.28 279.431 691.966 279.46C688.292 279.49 686.47 282.104 686.5 287.302L686.545 290.376H695.818C696.684 290.376 697.416 290.718 698.013 291.401C698.641 292.054 698.954 292.812 698.954 293.673C698.954 294.327 698.656 294.98 698.058 295.634C697.461 296.287 696.864 296.614 696.266 296.614H686.545L686.635 332.525C686.635 333.446 686.306 334.233 685.649 334.886C684.992 335.54 684.2 335.866 683.275 335.866C682.349 335.866 681.557 335.525 680.9 334.842C680.243 334.188 679.915 333.401 679.915 332.48L679.825 296.614H673.598C672.672 296.614 671.911 296.317 671.313 295.723C670.746 295.099 670.462 294.267 670.462 293.228C670.462 292.634 670.731 292.04 671.268 291.446C671.836 290.822 672.403 290.51 672.971 290.51L679.825 290.376V287.614C679.825 282.921 680.766 279.312 682.647 276.787C684.559 274.262 687.769 273 692.279 273C693.056 273 694.131 273.119 695.505 273.356C696.879 273.594 698.133 274.01 699.268 274.604C700.403 275.168 700.97 275.97 700.97 277.01C700.97 278.02 700.657 278.881 700.029 279.594C699.432 280.277 698.566 280.619 697.431 280.619Z" fill="#0F172A"/>
<path d="M725.61 289.129C728.746 289.129 731.672 289.752 734.39 291C737.108 292.248 739.482 293.97 741.513 296.168C743.574 298.337 745.172 300.817 746.307 303.609C747.472 306.401 748.054 309.356 748.054 312.475C748.054 316.604 747.068 320.436 745.097 323.97C743.126 327.505 740.453 330.371 737.078 332.569C733.733 334.738 729.97 335.837 725.789 335.866C721.548 335.866 717.725 334.782 714.32 332.614C710.916 330.446 708.213 327.594 706.212 324.059C704.241 320.495 703.255 316.634 703.255 312.475C703.255 309.386 703.822 306.446 704.957 303.653C706.122 300.832 707.72 298.337 709.751 296.168C711.782 293.97 714.141 292.248 716.829 291C719.547 289.752 722.474 289.129 725.61 289.129ZM725.61 295.812C722.683 295.812 720.04 296.584 717.68 298.129C715.321 299.673 713.439 301.708 712.036 304.233C710.662 306.728 709.975 309.446 709.975 312.386C709.975 315.356 710.662 318.119 712.036 320.673C713.409 323.228 715.291 325.292 717.68 326.866C720.07 328.411 722.758 329.183 725.744 329.183C728.701 329.153 731.344 328.366 733.674 326.822C736.033 325.248 737.9 323.198 739.273 320.673C740.647 318.149 741.334 315.416 741.334 312.475C741.334 309.535 740.632 306.802 739.229 304.277C737.855 301.723 735.973 299.673 733.584 298.129C731.224 296.584 728.566 295.812 725.61 295.812Z" fill="#0F172A"/>
<path d="M792.047 298.708C793.032 297.134 794.242 295.604 795.675 294.119C797.109 292.634 798.811 291.416 800.782 290.465C802.754 289.515 805.008 289.04 807.547 289.04C811.34 289.04 814.357 289.946 816.596 291.757C818.836 293.54 820.449 295.99 821.435 299.109C822.45 302.228 822.958 305.762 822.958 309.713L823.003 332.168C823.003 333.089 822.674 333.876 822.017 334.53C821.36 335.183 820.569 335.51 819.643 335.51C818.717 335.51 817.926 335.183 817.268 334.53C816.611 333.847 816.283 333.045 816.283 332.124L816.238 309.713C816.238 307.277 815.999 305.005 815.521 302.896C815.073 300.787 814.222 299.079 812.968 297.772C811.713 296.465 809.877 295.812 807.458 295.812C804.322 295.812 801.753 296.48 799.752 297.817C797.751 299.124 796.288 300.847 795.362 302.985C794.436 305.094 793.958 307.337 793.928 309.713L793.839 332.302C793.839 333.223 793.51 334.01 792.853 334.663C792.196 335.317 791.405 335.644 790.479 335.644C789.553 335.644 788.761 335.317 788.104 334.663C787.447 333.98 787.119 333.178 787.119 332.257L787.074 309.713C787.074 307.218 786.835 304.916 786.357 302.807C785.879 300.698 784.983 299.005 783.669 297.728C782.385 296.45 780.518 295.812 778.069 295.812C773.799 295.812 770.498 297.119 768.169 299.733C765.869 302.317 764.719 305.644 764.719 309.713L764.674 332.391C764.674 333.312 764.346 334.099 763.689 334.752C763.032 335.406 762.24 335.733 761.315 335.733C760.389 335.733 759.597 335.406 758.94 334.752C758.283 334.069 757.955 333.267 757.955 332.347L757.91 292.248C757.97 291.327 758.313 290.569 758.94 289.975C759.567 289.351 760.344 289.04 761.27 289.04C762.225 289.04 762.987 289.351 763.554 289.975C764.152 290.569 764.435 291.342 764.406 292.292L764.63 297.55C765.376 296.272 766.422 294.98 767.766 293.673C769.139 292.366 770.692 291.267 772.425 290.376C774.187 289.485 776.023 289.04 777.935 289.04C781.549 289.04 784.52 290.02 786.85 291.98C789.209 293.911 790.942 296.153 792.047 298.708Z" fill="#0F172A"/>
<path d="M856.109 335.733C851.779 335.733 847.851 334.663 844.327 332.525C840.833 330.386 838.055 327.535 835.994 323.97C833.934 320.376 832.903 316.441 832.903 312.163C832.903 308.094 833.874 304.337 835.815 300.891C837.786 297.416 840.445 294.624 843.789 292.515C847.135 290.406 850.868 289.351 854.989 289.351C858.782 289.351 862.262 290.287 865.427 292.158C868.623 294.03 871.177 296.554 873.088 299.733C875.029 302.881 876 306.386 876 310.248C876 311.614 875.746 312.787 875.238 313.767C874.761 314.748 873.865 315.238 872.55 315.238H839.937C840.415 317.703 841.385 319.99 842.849 322.099C844.342 324.178 846.209 325.856 848.449 327.134C850.718 328.411 853.242 329.05 856.02 329.05C858.379 329.05 860.694 328.53 862.964 327.49C865.233 326.45 867.1 325.025 868.563 323.213C869.22 322.351 870.101 321.921 871.206 321.921C872.132 321.921 872.924 322.248 873.581 322.901C874.238 323.554 874.566 324.342 874.566 325.262C874.566 326.064 874.298 326.792 873.76 327.446C871.61 330.059 868.967 332.094 865.831 333.55C862.725 335.005 859.484 335.733 856.109 335.733ZM869.146 308.644C868.877 306.327 868.086 304.218 866.771 302.317C865.457 300.386 863.785 298.856 861.754 297.728C859.723 296.599 857.483 296.035 855.034 296.035C852.495 296.035 850.181 296.614 848.09 297.772C846 298.931 844.252 300.46 842.849 302.361C841.475 304.262 840.534 306.356 840.026 308.644H869.146Z" fill="#0F172A"/>
</svg>
