<svg xmlns="http://www.w3.org/2000/svg" viewBox="0 0 500 500"><g id="freepik--Floor--inject-37"><g id="freepik--Mountains--inject-37"><g id="freepik--mountains--inject-37"><path d="M456.22,187.88l-42.54-80.75c-.68-1.36-3.44-1.34-4.09,0L390.53,142.4,373,119.57a4.61,4.61,0,0,0-7,0L348.38,142.4l-44.69-68a4.56,4.56,0,0,0-7.38.07l-36.42,57.41L231.41,96.5a4.62,4.62,0,0,0-7-.43L207.21,115,169,57.65a4.55,4.55,0,0,0-7.42.17L112.3,141.7,88,106.11c-1.87-2.74-6.53-2.57-8.13.3L35.88,184.75V292H456.22Z" style="fill:#f0f0f0"></path><path d="M79.36,113.31a4.14,4.14,0,0,1,4.28-.35l3.81,1.9a4.21,4.21,0,0,0,4.34-.39l1.24-1L88,106.11c-1.87-2.75-6.53-2.58-8.13.3L74,116.77a4,4,0,0,0,1.64-.7Z" style="fill:#fafafa"></path><path d="M409.85,106.42l-7.31,13.9.95,1.34a2.66,2.66,0,0,0,4,.25l3-3.25a2.69,2.69,0,0,1,3.81,0l1,1.09a2.64,2.64,0,0,0,4.16-.52l.26-.61-6.34-12.21A2.07,2.07,0,0,0,409.85,106.42Z" style="fill:#fafafa"></path><path d="M224.43,96.07,217.24,104l2.44,2.43a3.22,3.22,0,0,0,4.47-.06l1.57-1.67a3.23,3.23,0,0,1,4.45-.09h0a3.18,3.18,0,0,0,4.72-.43l1.2-1.84-4.69-5.81A4.6,4.6,0,0,0,224.43,96.07Z" style="fill:#fafafa"></path><path d="M296.31,74.45,282.67,95.94l1.7,2.93a3.45,3.45,0,0,0,5.55.26l3-4.1a3.49,3.49,0,0,1,5.15-.27h0a3.51,3.51,0,0,0,5-.12l3.15-3.7a3.5,3.5,0,0,1,4.55-.53L317,94.62l-13.3-20.24A4.56,4.56,0,0,0,296.31,74.45Z" style="fill:#fafafa"></path><path d="M365.94,119.57l-7.83,10.18,6.2-3.1a2.35,2.35,0,0,1,2.72.47l1.69,1.89a2.32,2.32,0,0,0,3.13.19l1.43-1.21a2.35,2.35,0,0,1,2.93,0l9.05,7.56h0l-12.29-16A4.61,4.61,0,0,0,365.94,119.57Z" style="fill:#fafafa"></path><path d="M161.54,57.82l-8.95,15.24,1,1.37a4.29,4.29,0,0,0,6.25.49l2.63-2.55a4.34,4.34,0,0,1,5.82,0l5.66,5.43a4.33,4.33,0,0,0,5.87-.07l1.53-1.54L169,57.64A4.56,4.56,0,0,0,161.54,57.82Z" style="fill:#fafafa"></path><g style="opacity:0.05"><polygon points="90.26 109.47 74.6 130.04 83.8 130.04 76.96 152.55 91.46 139.91 103.69 156.94 112.3 141.7 90.26 109.47"></polygon><polygon points="169.5 58.45 179.89 100.53 163.18 117.31 160.91 166.37 207.21 115.01 169.5 58.45"></polygon><polygon points="232.71 98.13 226.4 113.09 234.82 113.09 219.68 146.54 243.26 129.94 254.02 141.65 259.89 131.86 232.71 98.13"></polygon><polygon points="348.38 142.4 306.36 78.45 314.89 108.88 300.53 126.98 335.97 136.26 324.57 147.42 330.56 153.86 321.33 178.04 348.38 142.4"></polygon><polygon points="372.97 119.57 365.75 138.44 375.48 137.28 376.84 162.12 390.53 142.39 372.97 119.57"></polygon><polygon points="456.22 291.95 456.22 187.88 416.48 112.29 438.82 175.22 422.56 206.34 440.61 202.06 398.31 291.95 456.22 291.95"></polygon></g></g></g><g id="freepik--Shrubbery--inject-37"><path d="M482.27,281.57a7.66,7.66,0,0,0-4.44-5.06,4.41,4.41,0,0,0,2.6-4.39,11.83,11.83,0,0,0-1.79-5.11,5.79,5.79,0,0,0-.57-10.95c2-2.53,3-6.33,1.05-8.92-1.58-2.13-4.51-2.7-7.16-2.68s-5.37.6-6.75,2.73a5.24,5.24,0,0,0-6.83-4.36,6.89,6.89,0,0,0,1.21-2.53,8.31,8.31,0,0,0-1-6.36,4.65,4.65,0,0,0-2.16-2.07,3.39,3.39,0,0,0-1.1-.07,21.76,21.76,0,0,0-3.52.08A8.7,8.7,0,0,0,439,221.71a7.41,7.41,0,0,0-14.64-1.87,5.45,5.45,0,0,0-10.54,1,7.65,7.65,0,0,0-6.91-8.53,4.89,4.89,0,0,0,3.56-5.19,7.28,7.28,0,0,0-3.79-5.44,4.61,4.61,0,0,0-3.52-8.13,6.48,6.48,0,0,0-6.59-5.53,8.06,8.06,0,0,0-7,5.52A8.12,8.12,0,0,0,378,203a11.45,11.45,0,0,0-5.87-3.25c-2.25-.33-4.81.64-5.73,2.72-.78-2.33-2.09-4.64-4.25-5.8s-5.29-.76-6.51,1.37a9.77,9.77,0,0,0-1.26-3.48,10.23,10.23,0,0,0-1.1-1.51c-.17-.18-.33-.4-.51-.58s-.11-.13-.18-.18-1.11-.65-1.31-.56c2.36-1,2.51-4.66.75-6.53s-4.6-2.26-7.15-2a5.71,5.71,0,1,0-11.41-.07c-1.18-2.47-5-2.48-7-.67s-2.77,4.65-3.32,7.33a7.81,7.81,0,0,0-9.91-1,7.42,7.42,0,0,0-6.08-9c1.79-3.33-1.83-7.54-5.61-7.62s-7.07,2.55-9.59,5.37c-5.38-2.79-12.92,2.33-12.31,8.36-3.81-4.58-12.06-4.22-15.45.68a7.84,7.84,0,0,0-9.46-5.29c1.61-4.93-4.74-10.25-9.31-7.8a5.86,5.86,0,1,0-11.47,1.76c-5.28-.55-9.73,6.12-7.2,10.78a6.67,6.67,0,0,0-9,1.89c.94-2.34-2-5.11-4.3-4a4.93,4.93,0,0,0-9.26-3.3c.05-3-3.78-4.77-6.52-3.68s-4.31,4-5,6.87c-1.79-4.12-8.63-4.52-10.88-.63a9.05,9.05,0,0,0-18-1.74,7.74,7.74,0,0,0-14.14,6c-5.41-.89-9.58,7.12-5.76,11-2.13-2.69-7.13-2-8.48,1.13,1.23-3.1-2-7-5.24-6.33A5.77,5.77,0,1,0,119,190.2c-2-3.57-7.81-2.9-10.43.25s-2.92,7.54-3.12,11.63c-2.09-1.57-5.36.31-6,2.85s.58,5.17,2,7.33a8.17,8.17,0,0,0-9.48,5,4.9,4.9,0,0,0-9-3.45c-.15-3.71-6-4.75-8.49-2s-2.21,7.05-.94,10.54c-2-3.11-7.45-1.59-8.84,1.84s.13,7.37,2.2,10.44c-4.12-1.06-8.56,3.34-7.54,7.48-3.47-3.35-10.49.75-9.28,5.41-1-3.37-6.13-3.86-8.8-1.54s-3.37,6.15-3.45,9.68c-1.2-2.55-5.33-2.12-7,.13s-1.65,5.32-1.49,8.13c-3.56-1.6-7.91,3.1-6.05,6.52A11.24,11.24,0,0,0,25.79,292H480.16C482,290.56,482.81,283.83,482.27,281.57Z" style="fill:#f0f0f0"></path><path d="M482.27,281.57a7.66,7.66,0,0,0-4.44-5.06,4.41,4.41,0,0,0,2.6-4.39,11.83,11.83,0,0,0-1.79-5.11,5.79,5.79,0,0,0-.57-10.95c2-2.53,3-6.33,1.05-8.92-1.58-2.13-4.51-2.7-7.16-2.68s-5.37.6-6.75,2.73a5.24,5.24,0,0,0-6.83-4.36,6.89,6.89,0,0,0,1.21-2.53,8.31,8.31,0,0,0-1-6.36,4.65,4.65,0,0,0-2.16-2.07,3.39,3.39,0,0,0-1.1-.07,21.76,21.76,0,0,0-3.52.08A8.7,8.7,0,0,0,439,221.71a7.41,7.41,0,0,0-14.64-1.87,5.45,5.45,0,0,0-10.54,1,7.65,7.65,0,0,0-6.91-8.53,4.89,4.89,0,0,0,3.56-5.19,7.28,7.28,0,0,0-3.79-5.44,4.61,4.61,0,0,0-3.52-8.13,6.48,6.48,0,0,0-6.59-5.53,8.06,8.06,0,0,0-7,5.52A8.12,8.12,0,0,0,378,203a11.45,11.45,0,0,0-5.87-3.25c-2.25-.33-4.81.64-5.73,2.72-.78-2.33-2.09-4.64-4.25-5.8s-5.29-.76-6.51,1.37a9.77,9.77,0,0,0-1.26-3.48,10.23,10.23,0,0,0-1.1-1.51c-.17-.18-.33-.4-.51-.58s-.11-.13-.18-.18-1.11-.65-1.31-.56c2.36-1,2.51-4.66.75-6.53s-4.6-2.26-7.15-2a5.71,5.71,0,1,0-11.41-.07c-1.18-2.47-5-2.48-7-.67s-2.77,4.65-3.32,7.33a7.81,7.81,0,0,0-9.91-1,7.42,7.42,0,0,0-6.08-9c1.79-3.33-1.83-7.54-5.61-7.62s-7.07,2.55-9.59,5.37c-5.38-2.79-12.92,2.33-12.31,8.36-3.81-4.58-12.06-4.22-15.45.68a7.84,7.84,0,0,0-9.46-5.29c1.61-4.93-4.74-10.25-9.31-7.8a5.86,5.86,0,1,0-11.47,1.76c-5.28-.55-9.73,6.12-7.2,10.78a6.67,6.67,0,0,0-9,1.89c.94-2.34-2-5.11-4.3-4a4.93,4.93,0,0,0-9.26-3.3c.05-3-3.78-4.77-6.52-3.68s-4.31,4-5,6.87c-1.79-4.12-8.63-4.52-10.88-.63a9.05,9.05,0,0,0-18-1.74,7.74,7.74,0,0,0-14.14,6c-5.41-.89-9.58,7.12-5.76,11-2.13-2.69-7.13-2-8.48,1.13,1.23-3.1-2-7-5.24-6.33A5.77,5.77,0,1,0,119,190.2c-2-3.57-7.81-2.9-10.43.25s-2.92,7.54-3.12,11.63c-2.09-1.57-5.36.31-6,2.85s.58,5.17,2,7.33a8.17,8.17,0,0,0-9.48,5,4.9,4.9,0,0,0-9-3.45c-.15-3.71-6-4.75-8.49-2s-2.21,7.05-.94,10.54c-2-3.11-7.45-1.59-8.84,1.84s.13,7.37,2.2,10.44c-4.12-1.06-8.56,3.34-7.54,7.48-3.47-3.35-10.49.75-9.28,5.41-1-3.37-6.13-3.86-8.8-1.54s-3.37,6.15-3.45,9.68c-1.2-2.55-5.33-2.12-7,.13s-1.65,5.32-1.49,8.13c-3.56-1.6-7.91,3.1-6.05,6.52A11.24,11.24,0,0,0,25.79,292H480.16C482,290.56,482.81,283.83,482.27,281.57Z" style="opacity:0.15"></path></g><g id="freepik--floor--inject-37"><ellipse id="freepik--Grass--inject-37" cx="249.7" cy="341.83" rx="244.73" ry="149.77" style="fill:#fafafa"></ellipse><path d="M423.52,235.93c-95.58-58.49-250.53-58.49-346.1,0C-1.19,284-15.12,356.73,35.59,413.56c-.09-.32-.18-.65-.26-1-1.36-5.71-1.66-11.48-2.13-17.28-.44-5.39-2.57-14.05,3.25-17.31,3-1.68,6.48-1.23,9.73-1.22,7.11,0,19.07-2.44,20.57-11.68,1.68-10.31-15.29-8.4-20.23-10.51-9.09-3.87,3.58-16.61,6.21-19.7-1.19,6.61,7,8.06,11.43,7.2C70,341,75,339.37,79.36,335.22c2-2,5.75-5.7,6.23-9.18A4.46,4.46,0,0,0,85,323c-2.1-3.41-7.84-1.9-11.13-2.1,1.53-5.58,7.75-9.31,9.07-15,1.56-6.73,4.21-9.55,10.26-12.84,4.91-2.68,12.66-4.29,15-10.2,1.69-4.28-1.94-9.18-4-12.7-1.58-2.65-2.45-5-.67-8.08,1.49-2.56,8.45-7.87,11.64-6.44,1.44.65,1.31,3,2.66,4.4,2.42,2.49,6.23,2.29,9.36,2,6-.53,14.55-3.94,17.91-9.45,6.08-10-7.51-10.92-13.3-11.22-.57-6.23,12.62-10.33,16.27-11.6,8.77-3,17.91-4.3,27-6.27,5.17-1.13,10.3-3.1,15.57-3.68,3.88-.43,7.88.26,11.72-.57,8-1.74,11.84-6.55,15.47-12.2,1.14.71,2.27,1.4,3.38,2.07,7.33,4.42,14.41,8,23.08,8.43,5.22.23,9.88-1.76,15-2.17s13.61-.23,17.12,4.12c-1.48,2.07-3.88,3.95-4.36,6.67-1.1,6.15,5,9.25,9.44,10.93,6,2.28,21.42,4.55,22.07-5.71,6-.39,11.51,1.68,16.57,4.91,2.26,1.43,4.33,3.26,6.71,4.37,2.8,1.31,5.71,2.48,8.54,3.76,2.23,1,4.77,2,3.78,4.71-1.6,4.4-9.15,5.35-2,10.34,7.63,5.36,17.78,4.5,25.88,9.28-2.3.39-13.83-.44-14.58,3.19-1,4.71,9.73,8.27,12.71,9.41,7.38,2.81,16.94,5.8,24.82,5.42,6.81-.34,11.4-5.36,5.34-11.36,10,.74,20.91,8.39,30.24,12.25,0,3.82-3.63,2.54-4.58,5.14-1.8,4.93,3,7.4,6.36,9.68s18.67,10,18.91,1.28c-.07,2.73,4,3.11,5.61,4.23a15.5,15.5,0,0,1,1.79,1.42h-.15l.42.25a14.6,14.6,0,0,1,4.52,8.52,55.53,55.53,0,0,1-.62,17.21c-1.78,10.5-8.71,16.23-18,19.68-8.72,3.25-19.39,6.27-23.33,16.23-3.8,9.64,12.06,12.74,18.19,13.46,8.51,1,26.38,2.45,26.6-10.46,0-2.7-2.83-6.06-1.18-7.85,2.07-2.27,9.83-.68,12.39-.46,5.26.46,10.39-.74,12.61-6.44,1.24-3.16-.52-7.12.61-10.06.8-2.07,3.77-3.52,5.48-4.92,3.56-2.93,5.31-5.74,7-10.19a10.84,10.84,0,0,1,.66-1.47C491.32,297.6,467.59,262.9,423.52,235.93Z" style="fill:#f0f0f0"></path></g><g id="freepik--Pines--inject-37"><g id="freepik--Pine--inject-37"><path d="M54.44,254.39c-5.61,4.14-31.32,3.57-37.11,0-.51-2.24-.25-7.23.55-13.79l6.9,3.71-6.24-8.74c.91-6.36,2.18-13.7,3.67-21.22l4.27,2.38-3.65-5.48c.29-1.41.58-2.82.88-4.23l4.87,2.39-4.18-5.59c1.24-5.68,2.56-11.25,3.89-16.36l3.88,1.13s-1.46-2.19-3-4.46c1.36-5,2.72-9.5,4-13a2.88,2.88,0,0,1,5.43,0c1.72,4.76,3.59,11.23,5.43,18.48l-3.44,5.77,4-3.53c.83,3.35,1.65,6.84,2.43,10.38L41.5,212l6.64-4.64c1.1,5.2,2.12,10.42,3,15.42l-5.39,5.35,6-1.92c.11.61.21,1.21.31,1.8l-5.52,7.44,6.17-3.38C54.37,242.76,55.15,251.27,54.44,254.39Z" style="fill:#e0e0e0"></path><path d="M37.24,230.52l7.83-14.74-8,9.76-1.23-45.73-1,27.83-5.58-8.06,5.4,13.08-1,28.19-10.62-9.8L33.64,245l-.89,30.25c0,1.65,5.58,1.65,5.58,0l-1.09-44.68Z" style="fill:#f0f0f0"></path></g><g id="freepik--pine--inject-37"><path d="M105.66,218.23c-4.62,3.41-25.81,2.94-30.59,0a31.09,31.09,0,0,1,.08-8l5.51,2-5.12-5.51c.59-4.8,1.51-10.62,2.64-16.75l3.11,1.29-2.7-3.43c.11-.6.23-1.21.35-1.81l7.39,3.76-6.39-8.71c1-4.79,2.06-9.58,3.16-14.07l4.81,4-4.16-6.58c.3-1.2.61-2.37.91-3.51l4.26,2.31-3.49-5.11c.93-3.26,1.84-6.18,2.7-8.56a2.38,2.38,0,0,1,4.48,0c1.29,3.58,2.69,8.33,4.08,13.67-1.21,2.81-2.17,5-2.17,5l3.07-1.42c.33,1.36.66,2.76,1,4.17-1.46,4.45-3.27,10-3.27,10.15l4-7.09C103.46,192.58,106.78,213.36,105.66,218.23Z" style="fill:#e0e0e0"></path><path d="M91.49,198.55,98,186.4l-6.57,8-1-37.7-.79,22.94L85,173.05l4.45,10.78-.8,23.23L79.89,199l8.63,11.45-.73,21.33c0,1.35,4.59,1.35,4.59,0l-.89-33.22Z" style="fill:#f0f0f0"></path></g><g id="freepik--pine--inject-37"><path d="M450.41,231.52c-5.37,4-30,3.42-35.5,0a27.46,27.46,0,0,1-.11-6.78l8.39,3.85-8-8c.48-4.46,1.26-9.88,2.26-15.75l3.07,1.64-2.8-3.22c.58-3.31,1.22-6.75,1.91-10.23l5,4-4.45-6.67c.14-.73.29-1.45.44-2.17l6.83,5.63-5.79-10.54c1.07-4.88,2.2-9.67,3.32-14.14l4.46,3.39c-.11-.19-1.89-3.22-3.67-6.38,1.47-5.58,2.95-10.53,4.32-14.35a2.77,2.77,0,0,1,5.2,0c1.31,3.63,2.72,8.28,4.12,13.54h0l-2.72,6,3.24-4c.88,3.37,1.75,6.94,2.59,10.6l-5.83,12.86,6.89-8.16c.11.5.23,1,.33,1.52l-2.81,6.64,3.27-4.52c1.18,5.6,2.27,11.24,3.21,16.56l-8.09,9.75,8.76-5.84c.2,1.23.39,2.44.57,3.61l-4.1,4.54,4.59-1.32C450.5,222.21,451,228.89,450.41,231.52Z" style="fill:#e0e0e0"></path><path d="M450.41,231.52c-5.37,4-30,3.42-35.5,0a27.46,27.46,0,0,1-.11-6.78l8.39,3.85-8-8c.48-4.46,1.26-9.88,2.26-15.75l3.07,1.64-2.8-3.22c.58-3.31,1.22-6.75,1.91-10.23l5,4-4.45-6.67c.14-.73.29-1.45.44-2.17l6.83,5.63-5.79-10.54c1.07-4.88,2.2-9.67,3.32-14.14l4.46,3.39c-.11-.19-1.89-3.22-3.67-6.38,1.47-5.58,2.95-10.53,4.32-14.35a2.77,2.77,0,0,1,5.2,0c1.31,3.63,2.72,8.28,4.12,13.54h0l-2.72,6,3.24-4c.88,3.37,1.75,6.94,2.59,10.6l-5.83,12.86,6.89-8.16c.11.5.23,1,.33,1.52l-2.81,6.64,3.27-4.52c1.18,5.6,2.27,11.24,3.21,16.56l-8.09,9.75,8.76-5.84c.2,1.23.39,2.44.57,3.61l-4.1,4.54,4.59-1.32C450.5,222.21,451,228.89,450.41,231.52Z" style="opacity:0.15"></path><path d="M434,208.69l7.49-14.09-7.61,9.33-1.18-43.73-.91,26.61-5.33-7.7,5.16,12.51-.92,26.95-10.16-9.36,10,13.28-.85,24.74c0,1.58,5.33,1.58,5.33,0l-1-38.54Z" style="fill:#e0e0e0"></path></g><g id="freepik--pine--inject-37"><path d="M213.12,184.49c-5.58,4.12-31.18,3.55-36.94,0-.89-3.91.58-16.29,3.14-30.71l5.79,4.25-5.24-7.27c.36-2,.75-4,1.15-6.06l8.19,4.51-7-10.51c1-4.92,2.13-9.82,3.26-14.49l3.95,2.71L186.29,121c.24-.95.47-1.88.71-2.8l3.66,2.32-2.89-5.23c1.42-5.31,2.85-10,4.18-13.71a2.88,2.88,0,0,1,5.41,0c1.15,3.19,2.37,7.15,3.6,11.6h0l-2.33,6,2.88-4c.62,2.32,1.25,4.76,1.86,7.27l-4.74,8.83,5.65-5.08c.1.41.2.83.29,1.25h0l-1.83,5.06L205,129.4c1.35,5.94,2.65,12.11,3.79,18.1L202.49,158l7-6.76c.41,2.24.8,4.45,1.15,6.59l-5.53,9.55,6.24-5.15C213,172.88,213.83,181.37,213.12,184.49Z" style="fill:#e0e0e0"></path><path d="M213.12,184.49c-5.58,4.12-31.18,3.55-36.94,0-.89-3.91.58-16.29,3.14-30.71l5.79,4.25-5.24-7.27c.36-2,.75-4,1.15-6.06l8.19,4.51-7-10.51c1-4.92,2.13-9.82,3.26-14.49l3.95,2.71L186.29,121c.24-.95.47-1.88.71-2.8l3.66,2.32-2.89-5.23c1.42-5.31,2.85-10,4.18-13.71a2.88,2.88,0,0,1,5.41,0c1.15,3.19,2.37,7.15,3.6,11.6h0l-2.33,6,2.88-4c.62,2.32,1.25,4.76,1.86,7.27l-4.74,8.83,5.65-5.08c.1.41.2.83.29,1.25h0l-1.83,5.06L205,129.4c1.35,5.94,2.65,12.11,3.79,18.1L202.49,158l7-6.76c.41,2.24.8,4.45,1.15,6.59l-5.53,9.55,6.24-5.15C213,172.88,213.83,181.37,213.12,184.49Z" style="opacity:0.15"></path><path d="M196,160.72l7.8-14.67-7.93,9.71-1.22-45.52-1,27.7-5.55-8,5.38,13-1,28.06L182,161.25l10.43,13.83-.88,25.76c0,1.63,5.54,1.63,5.54,0L196,160.72Z" style="fill:#e0e0e0"></path></g><g id="freepik--pine--inject-37"><path d="M183.77,192.39c-5.79,3.57-31.5,4.14-37.11,0-.41-1.78-.33-5.31.13-10l5.28,2.81-4.88-6.49c.5-4.15,1.21-8.95,2.09-14.07l7.2,4.42-6.2-10.14c.13-.69.26-1.39.4-2.1l4.37,2.86-3.94-5.15c1-5.17,2.1-10.47,3.26-15.62l6.75,6.7L155.75,133c.43-1.8.86-3.57,1.3-5.29l5.17,3.87-3.73-9.4c1.37-5,2.73-9.52,4-13.06a2.89,2.89,0,0,1,5.43,0c1.17,3.23,2.4,7.24,3.66,11.75h0l-2.75,8.07,3.66-4.68c1.36,5.19,2.73,10.88,4,16.71l-5.24,11.42,6.36-6.22c.35,1.65.69,3.31,1,5L176.57,155l2.53-1.6c1.2,6.17,2.26,12.19,3.09,17.62l-5.94,7.8,6.54-3.62C183.92,183.42,184.37,189.78,183.77,192.39Z" style="fill:#e0e0e0"></path><path d="M174.86,160.59l-7.79,11-.82-23.8,4.2-14.23-4.36,9.72-.87-25.5-1,36.8-4.38-5.23,4.25,10.05-.56,20.89-9-9,8.88,15.11-.6,22.39c0,1.64,5.57,1.64,5.57,0l-1-30.09Z" style="fill:#f0f0f0"></path></g><g id="freepik--pine--inject-37"><path d="M477.09,246.57c-6.07,3.73-33,4.33-38.92,0-.53-2.36-.26-7.64.59-14.57l7.63,3.26-7-7.82c.68-4.75,1.54-10.05,2.55-15.58l4.68,2-4.37-3.69c.24-1.29.49-2.58.74-3.88l7.8,4.49-7-8.49c.87-4.31,1.79-8.64,2.76-12.87l4,2.16L447.24,186c1-4.13,2.91-11.52,3.92-15.14l4.1,3.25-3.47-5.49c1-3.53,2-6.69,3-9.36a3,3,0,0,1,5.7,0c1.46,4.06,3,9.29,4.59,15.19h0l-3.18,7.22,4.24-3.2c1.1,4.35,2.18,9,3.23,13.66h0L464,205.57l6.39-8.56c.38,1.8.76,3.6,1.12,5.39l-3.8,7.47,4.35-4.67c1.05,5.32,2,10.55,2.78,15.42h0l-8.7,13.67,9.42-9c.23,1.47.43,2.89.61,4.26l-6.57,8.07,7.09-3.79C477.39,239.86,477.58,244.42,477.09,246.57Z" style="fill:#e0e0e0"></path><path d="M467.74,213.22l-8.17,11.56-.86-24.95,4.41-14.92-4.57,10.19-.92-26.74-1,38.58L452,201.46,456.46,212l-.59,21.89-9.48-9.43,9.31,15.84L455.07,267c0,1.72,5.84,1.72,5.84,0l-1.08-34.8Z" style="fill:#f0f0f0"></path></g><g id="freepik--pine--inject-37"><path d="M329.42,187.28c-5.72,3.52-31.11,4.08-36.65,0-.5-2.2-.25-7.1.53-13.54l7.2,4.24-6.52-9.4c.74-5.16,1.72-11,2.87-17l4.93,3.37-4.31-6.58c.13-.69.27-1.36.4-2l6,3.9-5.25-7.61c1.08-5.19,2.24-10.38,3.44-15.3l6.64,4.38-5.86-7.6c.34-1.33.67-2.62,1-3.9l4.85,3.67-4-6.65c1.28-4.68,2.55-8.84,3.75-12.17a2.85,2.85,0,0,1,5.36,0c1,2.8,2.08,6.18,3.15,10h0l-2.37,6.22,2.93-4,0-.06c1.59,5.79,3.2,12.38,4.69,19.16L318.38,150l5.12-7.67c1,4.66,1.88,9.34,2.69,13.83h0l-5.58,18.68,6.92-10.75C329.29,175.16,330.15,184.08,329.42,187.28Z" style="fill:#e0e0e0"></path><path d="M329.42,187.28c-5.72,3.52-31.11,4.08-36.65,0-.5-2.2-.25-7.1.53-13.54l7.2,4.24-6.52-9.4c.74-5.16,1.72-11,2.87-17l4.93,3.37-4.31-6.58c.13-.69.27-1.36.4-2l6,3.9-5.25-7.61c1.08-5.19,2.24-10.38,3.44-15.3l6.64,4.38-5.86-7.6c.34-1.33.67-2.62,1-3.9l4.85,3.67-4-6.65c1.28-4.68,2.55-8.84,3.75-12.17a2.85,2.85,0,0,1,5.36,0c1,2.8,2.08,6.18,3.15,10h0l-2.37,6.22,2.93-4,0-.06c1.59,5.79,3.2,12.38,4.69,19.16L318.38,150l5.12-7.67c1,4.66,1.88,9.34,2.69,13.83h0l-5.58,18.68,6.92-10.75C329.29,175.16,330.15,184.08,329.42,187.28Z" style="opacity:0.15"></path><path d="M320.61,155.88l-7.69,10.89-.81-23.51,4.15-14-4.3,9.6-.87-25.18-1,36.33-4.32-5.16,4.19,9.93-.55,20.62-8.94-8.88,8.77,14.92-.59,22.11c0,1.62,5.5,1.62,5.5,0l-1-29.72Z" style="fill:#e0e0e0"></path></g><g id="freepik--pine--inject-37"><path d="M129.26,208.55c-5.23,3.21-28.4,3.72-33.46,0a17.81,17.81,0,0,1-.21-4.22l5.4,2.41L96,199c.32-3.19.82-6.94,1.46-11l5.26,2.75-4.62-6.69c.11-.65.23-1.31.34-2l8.52,4.94L99.5,176c1.15-6,2.47-12.35,3.86-18.35l4.94,3.72-3.94-8c.19-.77.38-1.52.56-2.27l4.88,3.88-3.73-8.3c1.36-5.17,2.73-9.75,4-13.3a2.6,2.6,0,0,1,4.9,0c1.23,3.4,2.53,7.76,3.85,12.67l-1.47,8.93,2.81-3.73c1.24,5,2.46,10.34,3.58,15.71l-3.69,11.53,4.75-6.3c1.09,5.42,2,10.76,2.8,15.62l-2.14,5.23,2.68-1.63c.19,1.29.36,2.55.5,3.74L124,203l5.08-4.1C129.55,203.43,129.65,206.86,129.26,208.55Z" style="fill:#e0e0e0"></path><path d="M129.26,208.55c-5.23,3.21-28.4,3.72-33.46,0a17.81,17.81,0,0,1-.21-4.22l5.4,2.41L96,199c.32-3.19.82-6.94,1.46-11l5.26,2.75-4.62-6.69c.11-.65.23-1.31.34-2l8.52,4.94L99.5,176c1.15-6,2.47-12.35,3.86-18.35l4.94,3.72-3.94-8c.19-.77.38-1.52.56-2.27l4.88,3.88-3.73-8.3c1.36-5.17,2.73-9.75,4-13.3a2.6,2.6,0,0,1,4.9,0c1.23,3.4,2.53,7.76,3.85,12.67l-1.47,8.93,2.81-3.73c1.24,5,2.46,10.34,3.58,15.71l-3.69,11.53,4.75-6.3c1.09,5.42,2,10.76,2.8,15.62l-2.14,5.23,2.68-1.63c.19,1.29.36,2.55.5,3.74L124,203l5.08-4.1C129.55,203.43,129.65,206.86,129.26,208.55Z" style="opacity:0.15"></path><path d="M111.3,187l-7.06-13.28,7.18,8.8,1.11-41.22.86,25.08,5-7.26-4.87,11.79.87,25.4,9.57-8.82L114.55,200l.8,27.68c0,1.48-5,1.48-5,0l1-40.69Z" style="fill:#e0e0e0"></path></g><g id="freepik--pine--inject-37"><path d="M352.88,190.6c-5.29,3.26-28.77,3.78-33.89,0-.39-1.72-.29-5.22.18-9.86l5.26,1-4.9-4.24c.23-1.8.49-3.73.8-5.74l9.74,3.89-9.28-6.87c1-6.2,2.27-13.09,3.71-20l7.54,6-6.84-9.31c.59-2.75,1.21-5.49,1.84-8.15l6.12,3.83-5.39-6.88c.59-2.38,1.17-4.69,1.76-6.9l3.63,4-2.4-8.41c.92-3.2,1.83-6.07,2.69-8.46a2.63,2.63,0,0,1,5,0c1.45,4,3,9.29,4.55,15.25h0l-2.75,5.9,3.61-2.5c1.15,4.65,2.27,9.58,3.33,14.55h0l-5.54,11.42,6.43-7c.49,2.39.95,4.77,1.38,7.1l-3.58,5.37,4.12-2.41c.89,5,1.64,9.76,2.19,13.92h0l-5.75,9.11,6.39-3.45C353.19,185.9,353.24,189,352.88,190.6Z" style="fill:#e0e0e0"></path><path d="M334.69,168.79l-7.15-13.46,7.27,8.92,1.12-41.77.88,25.42,5.09-7.36-4.93,12,.88,25.74,9.7-8.95L338,182l.81,23.63c0,1.5-5.09,1.5-5.09,0l1-36.81Z" style="fill:#f0f0f0"></path></g></g></g><g id="freepik--Clouds--inject-37"><path id="freepik--Cloud--inject-37" d="M132.19,30.41c0-3.14-3.44-5.31-7.33-5.68-4.58-.43-7.83,1.61-7.94,5.22-3-1.23-6.16-.44-5.92,2.85-.78-.89-3.7-.87-4.75-.62a4.14,4.14,0,0,0-2.61,2.23,3.05,3.05,0,0,0-.27,1.68c-1.75-.57-5.72-.92-6.71.68-1.77,2.86,5.3,2.95,6.72,2.08.3,2.22,7.9,2.59,9.74.54,1.43,1.45,3.5,1.77,5.73,1.9,3.75.22,6.06-1,9-2.55,3.19,2.7,8.7,2.75,11.57-.34.74.69,2.75.91,4.37.52,1.06-.25,1.31-.7,1.31-.7a9.7,9.7,0,0,0,1.95.58c2.08.44,6,0,4.33-1.9a4.92,4.92,0,0,0-3.44-.85c-.91-1.78-4.56-3.48-6.65-2-.08-2.16-2.06-3.86-4.85-4.29C135.5,29.65,133.26,29.52,132.19,30.41Z" style="fill:#f0f0f0"></path><path id="freepik--cloud--inject-37" d="M394,34.53a9,9,0,0,0-2.88-.53c-.93-.07-1.22-.25-1.4-.46a6.87,6.87,0,0,0-8.25-2.43,5.26,5.26,0,0,0-6.21-3.52c.1-2.89-3.6-6-6.92-6.72s-6-.39-7.79,1.71c-1.95-3.81-9.58-4.88-13.71-2.86-2.38,1.15-4.39,2.34-5.38,4.52a9,9,0,0,0-.89,4.32,7.67,7.67,0,0,0-7-1c-2.32.9-2.49,2.65-2.61,4.42a8.07,8.07,0,0,0-4.22-.07c-1.46.43-2.3,1.58-2.1,2.5-1.15-.06-3.91.87-3.59,2.09s3.5,1.24,4.67,1.19a21.07,21.07,0,0,0,3.29-.51,5.37,5.37,0,0,0,1.71.32c2,0,2.85-.87,3.17-1.62,1,2.06,4.45,3.63,6.91,4.26,4.63,1.18,11.18.46,14-3a5.22,5.22,0,0,0,1.38,1.68,8,8,0,0,0,4.28,1.73c1.9.18,7,.43,8.44-2.6,1,2,5.56,2.93,9,2.44a13.81,13.81,0,0,0,3.87-1.17,22.46,22.46,0,0,0,2.22-1.33,1.84,1.84,0,0,1,1.9-.13,11.34,11.34,0,0,0,7.54,0C395.42,37,395.82,35.35,394,34.53Z" style="fill:#f0f0f0"></path></g><g id="freepik--Shadows--inject-37"><ellipse id="freepik--Shadow--inject-37" cx="249.98" cy="422.15" rx="102.55" ry="59.21" style="fill:#ebebeb"></ellipse><ellipse id="freepik--shadow--inject-37" cx="418.28" cy="363.07" rx="64.61" ry="37.3" style="fill:#ebebeb"></ellipse><ellipse id="freepik--shadow--inject-37" cx="81.76" cy="359.85" rx="64.61" ry="37.3" style="fill:#ebebeb"></ellipse></g><g id="freepik--character-2--inject-37"><g id="freepik--Chartacter--inject-37"><g id="freepik--Top--inject-37"><path d="M398.69,111.75c-5.67.93-11.22,3.8-15.51,12.34-3.53,7-4.34,13.11-9.9,24.2L350,147.92l4.14,14.85s13.86,2.47,21,3c5.37.42,7.53-1,10.79-5.38,4.25-5.72,10.2-19.13,10.2-19.13Z" style="fill:#ebebeb"></path><g id="freepik--Chest--inject-37"><path id="freepik--chest--inject-37" d="M431,108.92c9.4,2.11,12.22,3,16.67,4.06,0,0,8.28,23.44,4.3,39.78-.92,3.76-1.6,14.13-2.23,22.13a94.89,94.89,0,0,0,0,18.73s-12.58,8.82-38.89,6.13c-20.65-2.11-23.13-9.8-23.13-9.8s.5-28.23,1.45-43.47c1.24-20,7.2-32,9.53-34.73.73-.43,14.75-2.54,14.75-2.54Z" style="fill:#57B766"></path><path id="freepik--chest--inject-37" d="M431,108.92c9.4,2.11,12.22,3,16.67,4.06,0,0,8.28,23.44,4.3,39.78-.92,3.76-1.6,14.13-2.23,22.13a94.89,94.89,0,0,0,0,18.73s-12.58,8.82-38.89,6.13c-20.65-2.11-23.13-9.8-23.13-9.8s.5-28.23,1.45-43.47c1.24-20,7.2-32,9.53-34.73.73-.43,14.75-2.54,14.75-2.54Z" style="fill:#fff;opacity:0.5"></path></g><g id="freepik--Head--inject-37"><path d="M437.75,71.91a7.55,7.55,0,0,0-4-3.75h0c-.8-4.33-6.37-9.44-17-9.87C408,57.93,403,61,400,66.09s-.89,11.65-.89,11.65l25.9-2A14.86,14.86,0,0,0,424.9,80c.42,3.85,4.81,7.73,4.81,7.73l-.22,5.38-.11,7.72a5,5,0,0,0,2.86-2.33,40.58,40.58,0,0,0,4.68-11.14C439.54,77.33,438.78,73.82,437.75,71.91Z" style="fill:#263238"></path><path d="M436.57,95.33c-4,2-5.84-1.15-5.84-1.15l-.4,17.33c-7.55,10.37-28.08,6.49-19.77-1.31l0-4.88a27.26,27.26,0,0,1-3.47-.33c-3.55-.51-5.8-3-6.9-6.82-1.63-5.65-2.36-14.72-.34-24.4.39-1.87,1.17-3.92,2.87-4.79,4.22-2.15,8.19.83,14.13,3.06,2.47.93,8.42,1.27,10,.52-2,2.3-.77,8.19-.19,10.06.82,2.68,2,4,2.54,4.09,2.43.48,2.69-1.6,3.76-2.75a4.46,4.46,0,0,1,7,1.5A7.28,7.28,0,0,1,436.57,95.33Z" style="fill:#9e6767"></path><path d="M425.59,100.55c-.79,3.93-6.06,6.58-15,6.9v-2.13a41.69,41.69,0,0,0,6.58-.68C421.31,103.9,425.59,100.55,425.59,100.55Z" style="fill:#874c4c"></path><path d="M416.65,78.34,420.58,80a2.25,2.25,0,0,0-1.18-2.86A2.09,2.09,0,0,0,416.65,78.34Z" style="fill:#263238"></path><path d="M401.86,79.44,406,78.2a2,2,0,0,0-2.6-1.47A2.25,2.25,0,0,0,401.86,79.44Z" style="fill:#263238"></path><path d="M419.16,82.55a1.74,1.74,0,1,1-1.7-1.78A1.73,1.73,0,0,1,419.16,82.55Z" style="fill:#263238"></path><path d="M406.07,82.38a1.74,1.74,0,1,1-1.69-1.77A1.57,1.57,0,0,1,406.07,82.38Z" style="fill:#263238"></path><path d="M412.22,80.41l-1.64,10.32-5.34-1.27A20.61,20.61,0,0,1,412.22,80.41Z" style="fill:#874c4c"></path><path d="M415.65,92l-6,2.32a3.15,3.15,0,0,0,4.1,1.94A3.36,3.36,0,0,0,415.65,92Z" style="fill:#874c4c"></path><path d="M415.06,93.14a3.41,3.41,0,0,1,.77-.11,3.32,3.32,0,0,1-2.07,3.24,3,3,0,0,1-1,.2A3,3,0,0,1,415.06,93.14Z" style="fill:#f28f8f"></path></g></g><g id="freepik--Bottom--inject-37"><path d="M449.31,184.13c3,38.54,5.32,87.9,5.32,87.9.28,2.93,2.31,6,3.72,20.48.36,3.66,1,17.71,1.09,22.4l-.05,2.35c-8.33,16.7-21.7,2.34-21.7,2.34l-.7-2c-5.48-18.09-7.75-26.9-9.79-35.14-4.19-17-9.07-49.19-9.07-49.19l-4.46,31.86a181.32,181.32,0,0,1-.74,19.25c-.38,3.45-1.55,11.92-2.65,21.11-.06.46-.32,2.35-.32,2.35l-22.48-1.95v-2.74c-.41-15.72-1.86-32.29-2-37.5-.5-21.09,1.2-89.15,3.54-117.29l44.1,1.5a4.39,4.39,0,0,1,4.22,4.07l1.29,18.46a12.75,12.75,0,0,0,10.66,11.7Z" style="fill:#263238"></path><path d="M418.13,233.31l-3.76-21.11s-10.46-1.52-15.83-6.34c0,0,3.46,6.37,13.33,8.86l3.74,18.65-1.94,31.8Z"></path><path d="M410,307.88c-1.14,13.22-20.84,13.33-22.48-1.95" style="fill:#263238"></path><path d="M365.14,358.84c.42,2,1.91,5.71,10.09,6.8S392.05,364,396,360.12s3.91-7.13,6-8.92,5.23-4.23,6-5.5.14-4.38.14-4.38Z" style="fill:#263238"></path><path d="M387.48,303.19v2.74s1.59,2.75,9.14,4A21.82,21.82,0,0,0,410,307.88l.32-2.35s1.44-.24,1.08,2.67-3,20.65-3.27,24.42,1,7.74-.14,10.43-5.19,4-7.59,7.58-3.74,10.34-15,12.82-17.06-.64-19.43-3.41-.9-5.71,3.66-9c4.79-3.41,8.2-5.92,11.56-8.65,4.3-3.49,5.44-5.94,5.44-11.45,0-4.47-.45-22.15-.61-24.48S386.16,303.19,387.48,303.19Z" style="fill:#57B766"></path><path d="M387.48,303.19v2.74s1.59,2.75,9.14,4A21.82,21.82,0,0,0,410,307.88l.32-2.35s1.44-.24,1.08,2.67-3,20.65-3.27,24.42,1,7.74-.14,10.43-5.19,4-7.59,7.58-3.74,10.34-15,12.82-17.06-.64-19.43-3.41-.9-5.71,3.66-9c4.79-3.41,8.2-5.92,11.56-8.65,4.3-3.49,5.44-5.94,5.44-11.45,0-4.47-.45-22.15-.61-24.48S386.16,303.19,387.48,303.19Z" style="opacity:0.2"></path><path d="M447.06,373.93c.89,5,2.92,8.27,7,9.81s9.9-1.43,11.59-4,3.31-5.94,1.77-13.65Z" style="fill:#263238"></path><path d="M437,317.64l.7,2s3.86,1.82,11,1,10.7-3.33,10.7-3.33l.05-2.35s1.36-.28,1.57,2.35c.32,4,.32,21.4.46,27.07S464.31,356,466.12,361s3.38,14.63-3.67,19.32-13.26,1.52-15.27-5.88c-2.14-7.9-1.17-20.2-2.63-27s-6.89-22.8-8.12-25.73S437,317.64,437,317.64Z" style="fill:#57B766"></path><path d="M437,317.64l.7,2s3.86,1.82,11,1,10.7-3.33,10.7-3.33l.05-2.35s1.36-.28,1.57,2.35c.32,4,.32,21.4.46,27.07S464.31,356,466.12,361s3.38,14.63-3.67,19.32-13.26,1.52-15.27-5.88c-2.14-7.9-1.17-20.2-2.63-27s-6.89-22.8-8.12-25.73S437,317.64,437,317.64Z" style="opacity:0.2"></path><path d="M430.8,153.09s.95-13.43,2.05-23.45,4.65-16.08,8.74-18.18l-5.13-1.27c-4.08,2.11-7.9,8.86-9,18.88s-2,23.45-2,23.45Z" style="fill:#263238"></path><path d="M398.61,151.09s.95-13.44,2.05-23.45S405.37,112,408.14,110a52.77,52.77,0,0,0-6.47,1.08c-3,2.86-5.6,8.73-6.4,16-1.1,10-2,23.45-2,23.45Z" style="fill:#263238"></path></g><g id="freepik--Coat--inject-37"><path d="M430.42,107.59l-.06,2.44c1.77,1.72,2,9,.63,18.53-1.7,11.9-2.7,34.42-2.2,51.69s1.44,21.26,1.44,21.26,12.81,1.11,21.28-1.25l-.14-5s2.12-.72,1.79-5.09-1.14-25.88-.92-35.9,6.17-32.19-4.58-41.33Z" style="fill:#f5f5f5"></path><path d="M430.23,201.51s12.81,1.11,21.28-1.25l-.14-5a51.63,51.63,0,0,1-9.27,1.29,99.82,99.82,0,0,1-12.49-.16Z" style="fill:#e0e0e0"></path><path d="M429.7,141.36c.54-6.46,4.27-15.11,6-21.1S438.23,110,438.23,110l5.5,1.72a11.21,11.21,0,0,0-5.71-5.56,30.76,30.76,0,0,0-7.51-2.63,24.29,24.29,0,0,1-.32,3.83,69.14,69.14,0,0,0-1.11,14.14Z" style="fill:#e0e0e0"></path><path d="M410.53,109.58c-3.88.9-8.37,6.21-11.49,17.43a158.1,158.1,0,0,0-5.53,34.72c-.65,12.4-.91,37.08-.91,37.08a24,24,0,0,1-7.89-1.16v-4.41a5.28,5.28,0,0,1-1.81-4.16,390.32,390.32,0,0,1,3.3-43.84c2.36-15.81,7.78-29.53,12.49-33.49C398.69,111.24,405.89,109.58,410.53,109.58Z" style="fill:#f5f5f5"></path><path d="M384.71,193.24c2.29.86,8,1.27,8,1.27l-.06,4.3a23.3,23.3,0,0,1-7.89-1.16Z" style="fill:#e0e0e0"></path><path d="M396.26,138.82c-.92-7.83,2.69-21.79,5.61-27.07s7-6.53,7-6.53c.53,0,1.07.08,1.64.1l0,4.88s-3.6,3.39-7.85,11.81A96.45,96.45,0,0,0,396.26,138.82Z" style="fill:#e0e0e0"></path></g><g id="freepik--Tablet--inject-37"><path d="M344.58,127h0l1.52-1v0a1.53,1.53,0,0,1,1.42,0l39,16a5.49,5.49,0,0,1,3,3.53l6.92,32.14a1.41,1.41,0,0,1-.38,1.55h0l-1.57,1.05v0a1.56,1.56,0,0,1-1.45,0l-39-16a5.49,5.49,0,0,1-2.95-3.52c-1.36-6.32-5.57-25.83-6.93-32.15C343.94,127.83,344.14,127.28,344.58,127Z" style="fill:#57B766"></path><path d="M344.58,127h0l1.52-1v0a1.53,1.53,0,0,1,1.42,0l39,16a5.49,5.49,0,0,1,3,3.53l6.92,32.14a1.41,1.41,0,0,1-.38,1.55h0l-1.57,1.05v0a1.56,1.56,0,0,1-1.45,0l-39-16a5.49,5.49,0,0,1-2.95-3.52c-1.36-6.32-5.57-25.83-6.93-32.15C343.94,127.83,344.14,127.28,344.58,127Z" style="fill:#fff;opacity:0.7000000000000001"></path><path d="M386.52,144.11a5.31,5.31,0,0,1,1.44,2.48l6.93,32.13a1.48,1.48,0,0,1-.34,1.53l1.47-1v0a1.42,1.42,0,0,0,.4-1.55l-6.93-32.14a5.28,5.28,0,0,0-1.32-2.34Z" style="fill:#57B766"></path><path d="M394.89,178.72,388,146.58a5.49,5.49,0,0,0-2.95-3.52l-39-16c-1.34-.54-2.17.16-1.87,1.56,1.36,6.32,5.57,25.83,6.93,32.15a5.49,5.49,0,0,0,2.95,3.52l39,16C394.35,180.83,395.19,180.13,394.89,178.72Z" style="fill:#57B766"></path><path d="M394.89,178.72,388,146.58a5.49,5.49,0,0,0-2.95-3.52l-39-16c-1.34-.54-2.17.16-1.87,1.56,1.36,6.32,5.57,25.83,6.93,32.15a5.49,5.49,0,0,0,2.95,3.52l39,16C394.35,180.83,395.19,180.13,394.89,178.72Z" style="fill:#fff;opacity:0.4"></path><path d="M387.15,153.05l-1.29-6a1.07,1.07,0,0,0-.55-.66l-2.69-1.09c-.25-.11-.41,0-.35.29.25,1.18,1,4.83,1.3,6a1,1,0,0,0,.55.66l2.69,1.1C387.05,153.44,387.21,153.31,387.15,153.05Z" style="fill:#455a64"></path><path d="M385.55,148.39a2.56,2.56,0,0,0-1.41-1.63c-.65-.26-1.06,0-.92.68a2.62,2.62,0,0,0,1.42,1.64C385.28,149.34,385.69,149,385.55,148.39Z" style="fill:#263238"></path><path d="M386.17,151.43a2.6,2.6,0,0,0-1.41-1.64c-.65-.26-1.06.05-.92.69a2.57,2.57,0,0,0,1.42,1.63C385.9,152.37,386.31,152.07,386.17,151.43Z" style="fill:#263238"></path><path d="M345.46,147.59c-1.27-2-1.13-2.23-.34-3.16a6,6,0,0,1,5-2.24c1.67.13,3.37.19,4.21.68s0,2.27-2.2,2.64c-3.48.6-3.51,1.53-3.51,1.53a42.73,42.73,0,0,1,4.48-.54,31.73,31.73,0,0,1,5,1c1.44.31,1.63,2.19-.86,2.71l2.63.56c1.85.4,2.43,1.42.91,2.49a2.75,2.75,0,0,1-1.72.55s2,.1,2,.76c0,1.89-1.24,2.32-5.3,3.28-3.87.9-4.77,2.92-4.08,4.37,0,0-1.49-1-2.81-2-1-.74-1.78-1.57-1.24-3.11,0,0-2.19-.07-2.25-1.43a7,7,0,0,1,.68-2.86,2.37,2.37,0,0,1-1.08-2.3,3.9,3.9,0,0,1,.91-2.33Z" style="fill:#455a64"></path><path d="M357.25,150.23a11.79,11.79,0,0,0-2.4-.39,7.52,7.52,0,0,0-2.37.62,27.08,27.08,0,0,0-4.33,2,28.34,28.34,0,0,0,4.57-1.37,12.6,12.6,0,0,1,2.17-.73C355.62,150.3,356.46,150.34,357.25,150.23Z" style="fill:#37474f"></path><path d="M359.07,153.83a5.37,5.37,0,0,0-2.61-.22,14.12,14.12,0,0,0-2.52.65,24.29,24.29,0,0,0-4.67,2.2,50.63,50.63,0,0,0,4.9-1.53A13.6,13.6,0,0,1,359.07,153.83Z" style="fill:#37474f"></path></g><g id="freepik--Arm--inject-37"><g id="freepik--arm--inject-37"><path d="M421,140.33c-3.2-2.71-4.83-3.78-6.37-4.33s-6.89-3.16-9-3.82c-1.32-.41-2,1.68-.38,3.24,1.24,1.21,4.55,2.9,6,3.81s4.15,4.66,4.15,4.66Z" style="fill:#37474f"></path><path d="M461.53,125.9c-2.89-7.31-5.72-9.48-13.24-11.93-8,6.92-3.54,26.1-3.54,26.1L452,160.29s-16.27-5.59-18.45-7.18-7.87-8.53-9.79-10.62c-2.62-2.84-4-2.57-5.45-2.45-4.67.41-5.72.74-6.73,1.3a2.12,2.12,0,0,0-1,1.75c-1.24.07-3.07-.08-3.44,1.93a5.42,5.42,0,0,0-.17,1.61,1.35,1.35,0,0,0-.83.41c-1.1,1.12.4,5.33,1.46,6.4.74.76,1.85.91,3.32.8,1.26-.09.76-1.39.76-1.39l1.74.21c3.6,2.91,3.46,8.23,8.37,9.7a35.15,35.15,0,0,1,6,1.56c10.49,4.27,23.93,16.27,33.43,17.69,9.27,1.38,10.48-4,10.41-9.76C471.5,163.11,464.41,133.18,461.53,125.9Z" style="fill:#455a64"></path><path d="M451.37,157.75l.61,2.54c4.17,1.36,8.57,4.7,9.45,7.09C460.86,163.65,458.72,160.21,451.37,157.75Z" style="fill:#874c4c"></path><path d="M410.54,143.09l5.91-.19-5.75-.56A2.24,2.24,0,0,0,410.54,143.09Z" style="fill:#37474f"></path><path d="M406.93,146.63l6.38-.43-6.34-.3A3.42,3.42,0,0,0,406.93,146.63Z" style="fill:#37474f"></path><path d="M412.21,152a2.49,2.49,0,0,1-.71-1.27,20.86,20.86,0,0,1-2.19-.28,5.44,5.44,0,0,1-.83-.3,2.36,2.36,0,0,1-.89-.64,2,2,0,0,0,.81.79,3.84,3.84,0,0,0,.93.4l.31.8a1.29,1.29,0,0,0-.67.21,1.62,1.62,0,0,0-.61.79,2,2,0,0,1,.69-.65,1.29,1.29,0,0,1,.86-.1,2.71,2.71,0,0,1,1.73,1.14l1.74.21A13.38,13.38,0,0,1,412.21,152Z" style="fill:#37474f"></path></g><path d="M447.66,113c-2.36,1.36-6.93,9.37-4.13,22.72a114.57,114.57,0,0,0,8.25,24.36s-7.32-3.26-8.5-3.7-1.32.34-1.32.34,1.68,3.91,0,7.49a10.87,10.87,0,0,1-5,5s-.83.83.3,1.65a87.31,87.31,0,0,0,8.3,5.25c7.29,4,14.54,8.15,20.28,6.86s6.35-6,6.12-12.35-5.85-29.21-7.37-35.84S462.07,116.52,447.66,113Z" style="fill:#ebebeb"></path><path d="M437,169.23a10.87,10.87,0,0,0,5-5c1.67-3.58,0-7.49,0-7.49L438.38,155a16.46,16.46,0,0,1-.94,6.62,12,12,0,0,1-4.59,5.52Z" style="fill:#e0e0e0"></path><path d="M451.78,160.06c4,1.09,9.08,5.52,10.06,7.77-1.16-4.92-4.52-9.1-11.39-10.68Z" style="fill:#e0e0e0"></path></g></g></g><g id="freepik--character-1--inject-37"><g id="freepik--chartacter--inject-37"><g id="freepik--arm--inject-37"><path d="M123.83,144.23s12.22-6.42,17-9.24,5.18-4.69,7.34-7.77l8.63-.87c-.27.63,0,1.05,2.14.73,4.18-.65,11.69-6.42,13.55-7.53s2.18,1.3,1.45,3,.06,6-1.18,8.84c-1.31,3-2.08,4.28-5.73,6.65-3.4,2.2-8,3.81-13.81,7.88S144,154.22,135.09,160c-8.41,5.51-11.16,8.06-17,3Z" style="fill:#ffa8a7"></path><path d="M167.07,138c3.65-2.37,4.42-3.68,5.73-6.65,1.24-2.79.45-7.15,1.18-8.84s.41-4.1-1.45-3-9.37,6.88-13.55,7.53c-2.1.32-2.41-.1-2.14-.73l-8.63.87c-2.11,3-2.59,4.9-7,7.57.13,6.41,1.57,12.4,6.18,15.78,1.9-1.62,3.73-3.15,5.88-4.66C159.07,141.84,163.67,140.23,167.07,138Z" style="fill:#455a64"></path><g id="freepik--test-tube--inject-37"><path d="M157.15,115.49a2.6,2.6,0,0,1,1.53-2.14,8.16,8.16,0,0,1,7.39,0,2.6,2.6,0,0,1,1.53,2.14V149.9h0a5.23,5.23,0,0,1-10.45,0h0Z" style="fill:#57B766"></path><path d="M157.15,115.49a2.6,2.6,0,0,1,1.53-2.14,8.16,8.16,0,0,1,7.39,0,2.6,2.6,0,0,1,1.53,2.14V149.9h0a5.23,5.23,0,0,1-10.45,0h0Z" style="fill:#fff;opacity:0.7000000000000001"></path><path d="M158.71,124.26a1.82,1.82,0,0,1,1.07-1.49,5.7,5.7,0,0,1,5.18,0,1.8,1.8,0,0,1,1.07,1.49v25.45h0a3.66,3.66,0,1,1-7.32,0h0Z" style="fill:#57B766"></path><g style="opacity:0.1"><path d="M162.37,153.37a3.66,3.66,0,0,1-3.65-3.47,2.55,2.55,0,0,0,5-.7h0V122.3a4.37,4.37,0,0,1,1.24.47,1.8,1.8,0,0,1,1.07,1.49v25.45h0A3.66,3.66,0,0,1,162.37,153.37Z"></path></g><path d="M158.71,124.26c0,1.17,1.64,2.12,3.66,2.12s3.66-.95,3.66-2.12-1.64-2.11-3.66-2.11S158.71,123.1,158.71,124.26Z" style="fill:#57B766"></path><g style="opacity:0.30000000000000004"><path d="M158.71,124.26c0,1.17,1.64,2.12,3.66,2.12s3.66-.95,3.66-2.12-1.64-2.11-3.66-2.11S158.71,123.1,158.71,124.26Z" style="fill:#fff"></path></g><g style="opacity:0.5"><path d="M158.71,124.26a1.84,1.84,0,0,1,1.07-1.49,1.6,1.6,0,0,0,.75,2.77,5.09,5.09,0,0,0,5.37-.72c-.42.9-1.84,1.56-3.53,1.56C160.35,126.38,158.71,125.43,158.71,124.26Z" style="fill:#fff"></path></g><path d="M159.15,151.34c0,.51-.31.76-.67.53a1.87,1.87,0,0,1-.63-1.41V114a3.76,3.76,0,0,1,.83-.63c.15-.09.31-.16.47-.24Z" style="fill:#fff;opacity:0.4"></path><path d="M160.16,152.63h0a.53.53,0,0,1-.36-.48V112.87q.38-.12.75-.21v39.68A.28.28,0,0,1,160.16,152.63Z" style="fill:#fff;opacity:0.4"></path><path d="M158.45,118.4a3.49,3.49,0,0,1-1.3-1.21v-1.7a1.77,1.77,0,0,1,.09-.56,3.65,3.65,0,0,1,1.21-1.06,8.78,8.78,0,0,1,7.37-.24v-.41l.06,0,.19.1a3.67,3.67,0,0,1,1,.87,2.18,2.18,0,0,1,.39.69,1.65,1.65,0,0,1,.1.58v2h0v6h0V149.9h0a5.22,5.22,0,0,1-10,2.1c.92,1.78,3.39,2.55,5.52,2h0a3,3,0,0,0,2.12-2.86V118.87A8.83,8.83,0,0,1,158.45,118.4Z" style="fill:#57B766;opacity:0.2"></path><path d="M162.91,155.1h0a4.53,4.53,0,0,0,3.81-4.83V113.81l.06.06a2.79,2.79,0,0,1,.59.73l0,0,.07.16,0,.06a1.64,1.64,0,0,1,.1.38v.05c0,.06,0,.13,0,.2v2h0v6h0V149.9h0A5.23,5.23,0,0,1,162.91,155.1Z" style="fill:#57B766;opacity:0.30000000000000004"></path><path d="M156.39,112.31a3,3,0,0,1,1.75-2.44,9.34,9.34,0,0,1,8.46,0,3,3,0,0,1,1.76,2.44h0v2.59h0a3,3,0,0,1-1.76,2.44,9.34,9.34,0,0,1-8.46,0,3,3,0,0,1-1.75-2.44h0v-2.59Z" style="fill:#57B766"></path><path d="M156.39,112.31a3,3,0,0,1,1.75-2.44,9.34,9.34,0,0,1,8.46,0,3,3,0,0,1,1.76,2.44h0v2.59h0a3,3,0,0,1-1.76,2.44,9.34,9.34,0,0,1-8.46,0,3,3,0,0,1-1.75-2.44h0v-2.59Z" style="fill:#fff;opacity:0.5"></path><path d="M157.75,117.09c1.76.81,5,1.22,6.77.48s2.77-1.57,2.77-3.35v-3.87a2.6,2.6,0,0,1,1.07,2h0v2.59h0a3,3,0,0,1-1.76,2.44,9.34,9.34,0,0,1-8.46,0A3.73,3.73,0,0,1,157.75,117.09Z" style="fill:#57B766;opacity:0.30000000000000004"></path><path d="M156.39,112.31a3,3,0,0,1,1.75-2.44,9.34,9.34,0,0,1,8.46,0,3,3,0,0,1,1.76,2.44h0v2.59h0a3,3,0,0,1-1.76,2.44,9.34,9.34,0,0,1-8.46,0,3,3,0,0,1-1.75-2.44h0v-2.59Z" style="fill:none"></path><path d="M166.6,114.76a9.34,9.34,0,0,1-8.46,0c-2.34-1.35-2.34-3.54,0-4.89a9.34,9.34,0,0,1,8.46,0C168.94,111.22,168.94,113.41,166.6,114.76Z" style="fill:#57B766"></path><path d="M166.6,114.76a9.34,9.34,0,0,1-8.46,0c-2.34-1.35-2.34-3.54,0-4.89a9.34,9.34,0,0,1,8.46,0C168.94,111.22,168.94,113.41,166.6,114.76Z" style="fill:#fff;opacity:0.7000000000000001"></path><path d="M165,110.3c1.89.5,2.5,1.93,1.68,3s-2.39,2-5.2,1.64-3.39-1.88-3.39-2.24Z" style="fill:#fff;opacity:0.7000000000000001"></path><path d="M165.45,114.09a6.76,6.76,0,0,1-6.16,0c-1.7-1-1.7-2.57,0-3.56a6.82,6.82,0,0,1,6.16,0C167.16,111.52,167.16,113.11,165.45,114.09Z" style="fill:#57B766"></path><path d="M165.45,114.09a6.76,6.76,0,0,1-6.16,0c-1.7-1-1.7-2.57,0-3.56a6.82,6.82,0,0,1,6.16,0C167.16,111.52,167.16,113.11,165.45,114.09Z" style="fill:#fff;opacity:0.4"></path><path d="M165.45,113.62a2.35,2.35,0,0,1,.37.24,3.32,3.32,0,0,1-.37.23,6.76,6.76,0,0,1-6.16,0,3.17,3.17,0,0,1-.36-.23,2.25,2.25,0,0,1,.36-.24A6.76,6.76,0,0,1,165.45,113.62Z" style="fill:#fff;opacity:0.4"></path></g><path d="M160.1,117.78c-1.18-1.89-2.06,0-4.57,2.68s-5.15,3.67-7.32,6.76l8.63-.87c.26-.62,1.1-1.44,1.32-1.9C158.6,123.53,161.27,119.68,160.1,117.78Z" style="fill:#455a64"></path><path d="M124,141.43S109.59,124.85,106,120.59s-4.3-5-8.07-6.82-7.57-2.25-11.31-2.6l-2.18,17.2c8.2,10,18.13,21.94,26.31,29.33,4.34,3.92,8.08,8.06,12.78,8.83,2.73,0,5.11-1,10-4.12s7.12-4.1,6-5.43l-2.18,1.52s-4.76-1.09-7-7a14.29,14.29,0,0,1,.51-11l2.26-1.22s.07-1.34-1.58-1.18S124,141.43,124,141.43Z" style="fill:#ebebeb"></path><path d="M137.29,158.5s-4.76-1.09-7-7a14.29,14.29,0,0,1,.51-11l4.07-2.4s-.31,6.7,2,11.51,5.36,5.66,5.36,5.66Z" style="fill:#e0e0e0"></path></g><g id="freepik--top--inject-37"><path d="M100.6,166.33a62.3,62.3,0,0,0,.51-14.87c7.53-6.89,6.13-14.37,2.57-20.19C96.38,119.33,91,114,86.6,111.18,83.48,110.05,73.48,110,73.48,110c-1.74.19-17.32,2.4-22,3.28a17.22,17.22,0,0,0-3.41,9c-.15,3-1.06,5.75,1.51,15.14L53,155.62s-.64,8.91-.64,13.68C60.93,179,86.41,179.1,100.6,166.33Z" style="fill:#57B766"></path><path d="M61.76,65.12c-7.66-1.45-15.88,6.95-15.38,19s1,30.72,1.39,35.15,8.76,9.3,15.39,5,6.72-19.28,5.26-26.5S59.83,74,61.76,65.12Z" style="fill:#263238"></path><path d="M64.46,104.59c.05-3.68-2.85-6.57-5.95-10.17-4.43-5.14-8.49-14.33,0-20.57-.3-8.43,6.79-13.34,16.83-13.73s18,2.68,20.76,11.34-2.6,13.23-2.6,13.23Z" style="fill:#37474f"></path><path d="M94.6,77.57A44.45,44.45,0,0,1,96,86.77c.56,12.22-2.75,16.7-4.62,17.82s-4.39,1.86-8.67,1.65l-1.19,7.61c1.47,2.9,3.24,4.71,2.66,9.3-7.42-2.32-12.73-4.06-19.86-11l.18-13.8s-2.74,2.18-6.32-1.27c-2.42-2.33-3.1-5.67-1.83-8,1.61-3,6.69-3.26,7.88.14,1.26,3.57,3.6,2.45,3.17-2.86-.13-1.63-2.12-10.66,4.23-14.46,2.74-1.63,7.3,2.15,10.58,1.42,1.83-.42,2.17-3.88,5.44-4C91.31,69.31,93.46,73,94.6,77.57Z" style="fill:#ffbda7"></path><path d="M82.75,106.24c-4,0-11.83-.61-14.88-5.26a7.13,7.13,0,0,0,2.8,4.65c3.7,2.79,11.81,2.57,11.81,2.57Z" style="fill:#f0997a"></path><path d="M79.9,85.07a1.67,1.67,0,0,1-1.49,1.81,1.61,1.61,0,0,1-1.85-1.37,1.68,1.68,0,0,1,1.49-1.81A1.6,1.6,0,0,1,79.9,85.07Z"></path><path d="M94.09,81,91,78.91A1.88,1.88,0,0,1,94.09,81Z"></path><path d="M79,80l-3.42,1.6a1.73,1.73,0,0,1,.81-2.43A2,2,0,0,1,79,80Z"></path><path d="M93.49,84.12A1.67,1.67,0,0,1,92,85.93a1.59,1.59,0,0,1-1.84-1.37,1.67,1.67,0,0,1,1.49-1.81A1.59,1.59,0,0,1,93.49,84.12Z"></path><circle cx="84.4" cy="96.74" r="1.44" style="fill:#9e6767"></circle><path d="M98.69,84.69v-.1c-.25-1.63-.55-3.65-.85-4.84C96.7,75.37,95,74.63,85.57,75.2S70.9,77,70.31,81.44c-.15,1.25-.21,3.37-.26,5.07v.06a5.52,5.52,0,0,0,5.85,5.65L79.2,92a6.25,6.25,0,0,0,5.5-4.17c.25-.69.77-1.85,1.54-1.89s1.42,1,1.74,1.68c1.15,2.27,2.44,3.7,4.92,3.54l.58,0a5.62,5.62,0,0,0,5.21-6.45Zm-5.32,4.77-.57,0c-1.84.12-2.47-1-3.31-2.61-.69-1.37-1.77-2.7-3.36-2.61s-2.5,1.57-3,3a4.56,4.56,0,0,1-4,3.06l-3.3.21a3.84,3.84,0,0,1-4.06-3.91c.05-1.62.1-3.79.25-5,.36-2.77,3.56-4.13,13.69-4.75s9.81.56,10.51,3.27c.28,1.12.59,3.21.83,4.77A3.94,3.94,0,0,1,93.37,89.46Z" style="fill:#57B766"></path><path d="M98.69,84.69v-.1c-.25-1.63-.55-3.65-.85-4.84C96.7,75.37,95,74.63,85.57,75.2S70.9,77,70.31,81.44c-.15,1.25-.21,3.37-.26,5.07v.06a5.52,5.52,0,0,0,5.85,5.65L79.2,92a6.25,6.25,0,0,0,5.5-4.17c.25-.69.77-1.85,1.54-1.89s1.42,1,1.74,1.68c1.15,2.27,2.44,3.7,4.92,3.54l.58,0a5.62,5.62,0,0,0,5.21-6.45Zm-5.32,4.77-.57,0c-1.84.12-2.47-1-3.31-2.61-.69-1.37-1.77-2.7-3.36-2.61s-2.5,1.57-3,3a4.56,4.56,0,0,1-4,3.06l-3.3.21a3.84,3.84,0,0,1-4.06-3.91c.05-1.62.1-3.79.25-5,.36-2.77,3.56-4.13,13.69-4.75s9.81.56,10.51,3.27c.28,1.12.59,3.21.83,4.77A3.94,3.94,0,0,1,93.37,89.46Z" style="opacity:0.30000000000000004"></path><path d="M97,84.94a3.94,3.94,0,0,1-3.65,4.52l-.57,0c-1.84.12-2.47-1-3.31-2.61-.69-1.37-1.77-2.7-3.36-2.61s-2.5,1.57-3,3a4.56,4.56,0,0,1-4,3.06l-3.3.21a3.84,3.84,0,0,1-4.06-3.91c.05-1.62.1-3.79.25-5,.36-2.77,3.56-4.13,13.69-4.75s9.81.56,10.51,3.27C96.47,81.29,96.78,83.38,97,84.94Z" style="fill:#37474f;opacity:0.5"></path><path d="M85.31,86.61l1.07,6.66,5-2L91.21,91,87.5,86.82h0L87,86.28a1.14,1.14,0,0,0-.78-.34A1.39,1.39,0,0,0,85.31,86.61Z" style="fill:#f0997a"></path></g><g id="freepik--bottom--inject-37"><path d="M51.26,162.75c0,4.32-1.62,6.92-3.49,11.76-3.51,9.13-5.28,11.82-5.71,24.9-1.06,32.38-.23,65.92-.23,65.92-.24,2.85-2.75,7.91-3.9,22.71-1,12.94-.65,30.68-.65,30.68s9.8,4.41,18.22,1.31c3.35-10.53,10.32-37.84,14-51.93C72.8,255.31,75,236.49,75,236.49l5.83,26.08a72.32,72.32,0,0,0,.22,16.87c1.08,8.66,5.22,33.49,5.22,33.49s10.78,3,18-1.83c0,0,1.82-43.26,1.89-53.74.13-17.34,2.37-49.17-1.53-73.52l0-.2a93.69,93.69,0,0,1,1.59-36.42,23.12,23.12,0,0,0,.73-5.28c0-7.25-2.76-10.25-2.76-10.25-5.89,3.26-25.17,3-38,4.23l1.58,22.29a7.14,7.14,0,0,1-7.85,6.1C56.16,163.89,52.17,163.33,51.26,162.75Z" style="fill:#37474f"></path><path d="M65.28,176.85a.41.41,0,0,0-.48.27c-.39,1.51-.69,2.86-1,4.17-1,4.73-1.8,8.15-5.53,11.82a13.41,13.41,0,0,1-9.39,3.58c1.61-9.69,5-17.42,10.45-23.81a.32.32,0,0,0-.07-.5.43.43,0,0,0-.55.06C53.14,179,49.66,187,48.05,196.94c0,0,0,0,0,.05v0a86.94,86.94,0,0,0-1,12c-.35,18.21-.88,45.72-1.16,52.95-.15,3.87-1.06,7.23-2.21,11.48-1,3.66-2.11,7.82-3.1,13.5-2.15,12.3-1.06,32.51-1,32.72a.39.39,0,0,0,.4.34h0a.36.36,0,0,0,.37-.38c0-.2-1.1-20.34,1-32.56,1-5.66,2.11-9.8,3.09-13.45,1.16-4.29,2.08-7.68,2.23-11.62.29-7.24.81-34.76,1.16-53a86.52,86.52,0,0,1,1-11.65h.41a14,14,0,0,0,9.68-3.81c3.88-3.82,4.66-7.32,5.73-12.17.29-1.3.59-2.65,1-4.14A.36.36,0,0,0,65.28,176.85Z" style="fill:#455a64"></path><path d="M88.37,344.42c-.72.91-.27,2,.69,3s5.33,2.21,8.14,3.17a24.42,24.42,0,0,1,8.59,4.29,23.32,23.32,0,0,0,12.88,4.77c7,.56,10.91-1,12.45-2.61s1.42-4.43,0-5.44-11.48-5.68-21-7.68S88.37,344.42,88.37,344.42Z" style="fill:#263238"></path><path d="M84.15,299.88l.44,2.76s3.92,2.09,11.32,1.51,8.84-4.27,8.84-4.27l.1-2.43s2.17.17,1.59,4.41-1.07,24.49-.74,26.77,3.75,6.91,10.61,11.61,16.13,7.54,16.1,11.36-5.29,6.6-13.06,6.09c-9.88-.63-13.12-4.92-18.36-7.41s-10.31-3.45-11.71-4.95-1.92-1.72-1.56-8.07.08-8.81-2.06-19.74-2.48-12.21-2.8-14.75S84.15,299.88,84.15,299.88Z" style="fill:#57B766"></path><path d="M84.15,299.88l.44,2.76s3.92,2.09,11.32,1.51,8.84-4.27,8.84-4.27l.1-2.43s2.17.17,1.59,4.41-1.07,24.49-.74,26.77,3.75,6.91,10.61,11.61,16.13,7.54,16.1,11.36-5.29,6.6-13.06,6.09c-9.88-.63-13.12-4.92-18.36-7.41s-10.31-3.45-11.71-4.95-1.92-1.72-1.56-8.07.08-8.81-2.06-19.74-2.48-12.21-2.8-14.75S84.15,299.88,84.15,299.88Z" style="opacity:0.2"></path><path d="M75,236.49l4.18-32A21.51,21.51,0,0,0,96,196.74s.28,8-13.41,11.66l-5,29.47,3.25,24.7Z" style="fill:#263238"></path><path d="M31.74,360.77c-1.24,5.64-2.16,15.19,4.33,19.52s11.53,2,13,0,2.54-3.82,2.69-10.89Z" style="fill:#263238"></path><path d="M58.51,309.7l-.5,1.79s-3.78,1.58-10.59.79-10.2-3.84-10.2-3.84v-2.78s-2,.24-1.83,3.42,1,23,.68,27.06a81.64,81.64,0,0,1-2.69,17.47,44.55,44.55,0,0,0-2.11,13.68c.13,3.7,1.29,11.57,10.35,13,10.24,1.63,10.09-7.72,10.24-15.48.11-5.79-.25-15.29.54-22s5.38-21.43,6.18-25.93C59.41,312.17,60.09,310.29,58.51,309.7Z" style="fill:#57B766"></path><path d="M58.51,309.7l-.5,1.79s-3.78,1.58-10.59.79-10.2-3.84-10.2-3.84v-2.78s-2,.24-1.83,3.42,1,23,.68,27.06a81.64,81.64,0,0,1-2.69,17.47,44.55,44.55,0,0,0-2.11,13.68c.13,3.7,1.29,11.57,10.35,13,10.24,1.63,10.09-7.72,10.24-15.48.11-5.79-.25-15.29.54-22s5.38-21.43,6.18-25.93C59.41,312.17,60.09,310.29,58.51,309.7Z" style="opacity:0.2"></path></g><g id="freepik--coat--inject-37"><path d="M64.36,108.82c0,5.26,6.51,17,9,28.8S73,182,72.08,192.77V197s-20.36,1.18-30.95-2.88l.58-4.62s-2-.51-1.45-3.53,5.16-16.73,7.51-27.28-1.7-19.25-2.43-26.35,4.06-19.27,4.06-19.27Z" style="fill:#f5f5f5"></path><path d="M41.13,194.14C51.72,198.2,72.08,197,72.08,197v-4.25s-18.14.43-30.37-3.25Z" style="fill:#e0e0e0"></path><path d="M74,144.66c-.35-4.9-3.26-12.35-7.51-19.4a93.7,93.7,0,0,1-7.09-15l-3.23.92A7,7,0,0,1,60,106.39c3.07-1.3,4.49-1.8,4.49-1.8s.08,3.45,3.41,12.8S74,134,74,144.66Z" style="fill:#e0e0e0"></path><path d="M82,111.14s11.52,8.66,16.24,19.74,4.39,59.7,4.39,59.7v4.32l6-1.55v-3.83a4.78,4.78,0,0,0,2.44-5.31,136,136,0,0,1-2.92-26.05c0-11,2.27-19.54-4.23-29.57a83.88,83.88,0,0,0-16.19-17.67l-5.46-1.5Z" style="fill:#f5f5f5"></path><path d="M102.64,190.58a18.23,18.23,0,0,0,6-1.06v3.83l-6,1.55Z" style="fill:#e0e0e0"></path><path d="M100.26,139.49c-.24-5.81-.55-11.17-3.21-16.34S87.71,107.66,82.86,106l-.94,5.69A54.09,54.09,0,0,1,93.9,124,38.57,38.57,0,0,1,100.26,139.49Z" style="fill:#e0e0e0"></path></g><g id="freepik--arm--inject-37"><path d="M89.36,109.12A2.46,2.46,0,0,0,87,108.3a3.43,3.43,0,0,0-1.33-2.65,3,3,0,0,0-2-.07c.15-1-.91-2.84-2.06-2.79a10.56,10.56,0,0,0-3.06,1,10.62,10.62,0,0,0-2,3.4l.77-3.66a37.77,37.77,0,0,0,4-2.62c1.42-1.29.85-3.1.18-3a28.6,28.6,0,0,0-4.21,1.63c-1.73.79-4,1.4-4.35,2.7s-.63,2.85-1.19,5.79-.71,3.82-.14,5.26,1.34,4.36,2.81,8,1,4.64-.1,7.17c-.72,1.71-5.72,10.37-11.14,18.94l-2.92-14.62s-3.73-15-10.84-19c-5.94,1.53-8.53,4.88-9.09,9.4-1,8,5.43,28.13,8.92,38.71s8.83,13.5,12.24,13.29,11.29-6.32,15-15.54c3.14-6.48,8.21-26.41,9-29.21a26.9,26.9,0,0,1,2.4-6.15c.78-1.44.49-6.11-.22-8.73.46.77,1.5,1.19,2.06.48C89.53,114.6,89.72,110,89.36,109.12Z" style="fill:#ffbda7"></path><path d="M87,108.3a3.43,3.43,0,0,0-1.33-2.65,3,3,0,0,0-2-.07c.15-1-.91-2.84-2.06-2.79a10.56,10.56,0,0,0-3.06,1,10.62,10.62,0,0,0-2,3.4l.77-3.66a37.77,37.77,0,0,0,4-2.62c1.42-1.29.85-3.1.18-3a28.6,28.6,0,0,0-4.21,1.63c-1.73.79-4,1.4-4.35,2.7s-.63,2.85-1.19,5.79-.71,3.82-.14,5.26,1.35,4.36,2.81,8,1,4.64-.1,7.17c-.28.68-1.26,2.47-2.65,4.91a16.4,16.4,0,0,0,11.45,5.82c1.17-4.27,2.07-7.73,2.36-8.78a26.44,26.44,0,0,1,2.4-6.15c.78-1.44.49-6.11-.22-8.73.46.77,1.5,1.19,2.06.48-.17-1.34,0-6-.34-6.82A2.46,2.46,0,0,0,87,108.3Z" style="fill:#455a64"></path><path d="M74.3,128.39a12.78,12.78,0,0,0,.92-2.67,6.13,6.13,0,0,0-.23-2.79c-.58-1.8-1.39-3.51-2-5.31s-1.23-3.56-1.79-5.38c-.21-1.93.39-3.77.7-5.62l.57-2.78c.25-.86.14-2,1-2.63a10.55,10.55,0,0,1,2.54-1.31l2.59-1.12a24.5,24.5,0,0,1,2.68-1c.67-.18,1,.6,1,1a2.41,2.41,0,0,1-.31,1.44,6.87,6.87,0,0,1-2.16,1.9c-.79.52-1.59,1-2.41,1.5l.08-.1-.78,3.66-.29-.09c.27-.61.56-1.21.88-1.79a7.6,7.6,0,0,1,1.15-1.66h0a15.76,15.76,0,0,1,1.65-.66,3.89,3.89,0,0,1,1.78-.29,2.35,2.35,0,0,1,1.38,1.16,2.78,2.78,0,0,1,.48,1.74l-.14-.13a4.12,4.12,0,0,1,1.31-.14,1.68,1.68,0,0,1,1.2.56,3.66,3.66,0,0,1,1,2.41l-.12-.09a2.41,2.41,0,0,1,2.44.86h0a16.6,16.6,0,0,1,.24,3.43c0,1.14,0,2.29.08,3.42v0l0,0a1,1,0,0,1-1.19.31,1.87,1.87,0,0,1-1-.8l.1,0a22.34,22.34,0,0,1,.6,3.82,17.19,17.19,0,0,1-.08,3.86,5.17,5.17,0,0,1-.71,1.8c-.29.57-.56,1.15-.81,1.75a28.6,28.6,0,0,0-1.23,3.66,29.19,29.19,0,0,1,1.21-3.67c.24-.6.51-1.19.8-1.76a5.29,5.29,0,0,0,.69-1.79,17.6,17.6,0,0,0,0-3.84,22.16,22.16,0,0,0-.63-3.8l-.09-.36.19.31a1.83,1.83,0,0,0,.92.75.91.91,0,0,0,1.05-.27v0c-.11-1.14-.09-2.28-.11-3.42a17.77,17.77,0,0,0-.25-3.37h0A2.23,2.23,0,0,0,87,108.4h-.11v-.11A3.47,3.47,0,0,0,86,106a1.47,1.47,0,0,0-1.07-.49,3.94,3.94,0,0,0-1.23.14l-.17,0,0-.17A2.63,2.63,0,0,0,83.1,104a2.16,2.16,0,0,0-1.24-1,3.88,3.88,0,0,0-1.64.29,14.94,14.94,0,0,0-1.6.66h0a7.43,7.43,0,0,0-1.07,1.58c-.32.58-.6,1.17-.86,1.77l-.59,1.35.3-1.44.77-3.67v-.07l.06,0c.81-.48,1.62-1,2.41-1.48a6.69,6.69,0,0,0,2.08-1.78A2.22,2.22,0,0,0,82,98.84c0-.41-.28-1-.66-.8a23.89,23.89,0,0,0-2.64,1c-1.68.82-3.59,1.32-5.1,2.36-.8.55-.7,1.63-1,2.52l-.58,2.77c-.33,1.84-.94,3.7-.74,5.56.53,1.79,1.16,3.59,1.74,5.38s1.37,3.52,1.93,5.33a6,6,0,0,1,.22,2.8A13.45,13.45,0,0,1,74.3,128.39Z" style="fill:#37474f"></path><path d="M83.75,105.7a2.89,2.89,0,0,0-.18-1c-.85.49-2,.93-2.67,1.4a2.7,2.7,0,0,0-1.06,1.66C80.12,107.24,81.07,106.41,83.75,105.7Z" style="fill:#37474f"></path><path d="M84,110a5.68,5.68,0,0,1,3-1.56,6.33,6.33,0,0,0-.14-.94C84.39,108.56,84,110,84,110Z" style="fill:#37474f"></path><path d="M87.71,116.17a16.77,16.77,0,0,0-1-3.5c-.32-.66-.46-1,.35-1.15s1.64-1.36,1.61-.63c0,.37-1.25,1.34-1.2,1.87A19.14,19.14,0,0,1,87.71,116.17Z" style="fill:#37474f"></path><path d="M63.16,147.33c-1.55,2.2-6.89,9.21-6.4,14.73,0,0-2-3.69.66-9.13a83.07,83.07,0,0,1,5.07-9Z" style="fill:#f0997a"></path><path d="M49.4,113.09c-6.38,1.78-9.8,4.53-10.19,12.17s2.9,17.24,4.6,23.38,4.77,17.31,9.41,23.3,9.3,4.37,12.82,2.57,9.64-9.13,11.79-14.26,4.61-10,2.53-11.61l-.52,1.69A13.84,13.84,0,0,1,72.08,148,11.62,11.62,0,0,1,67,141.21l1-1.72a2,2,0,0,0-2.12.86c-1.21,1.68-2.72,4.31-2.72,4.31s-1.32-7.75-2.22-11.72S55.9,114.59,49.4,113.09Z" style="fill:#ebebeb"></path><path d="M67,141.21A11.62,11.62,0,0,0,72.08,148a13.84,13.84,0,0,0,7.76,2.33l1.31-3.79s-2-.13-6.48-2.8-5.54-6.14-5.54-6.14Z" style="fill:#e0e0e0"></path><path d="M63.16,144.66C60.44,148.54,55.48,155,56.21,160c-2.53-5.52.33-9.55,2.33-12.53a39.42,39.42,0,0,1,4.17-5.45Z" style="fill:#e0e0e0"></path></g></g></g><g id="freepik--Flask--inject-37"><g id="freepik--Rocks--inject-37"><polygon id="freepik--shadow--inject-37" points="178.02 419.07 170.42 424.79 164.67 434.5 158.32 433.7 159.15 435.52 153.49 442.79 145.53 445.56 132.05 449.83 120.83 449.83 118.05 446.28 109.7 445.88 96.36 435.68 103.19 426.41 123.56 422.98 112.42 419.82 105.2 413.24 102.51 404.15 115.24 395.96 131.26 395.06 176.84 398.02 178.02 419.07" style="fill:#57B766;opacity:0.2"></polygon><g id="freepik--Rock--inject-37"><polygon points="116.98 391.14 116.16 400.89 124.67 397.32 135.65 401.85 140.86 407.34 145.52 418.59 150.6 434.5 154.58 420.1 145.52 407.34 136.98 399.24 125.22 396.22 116.98 391.14" style="fill:#263238"></polygon><polygon points="131.25 426.82 115.34 415.57 120.69 403.77 131.25 426.82" style="fill:#263238"></polygon><polygon points="133.45 376.46 116.98 391.14 125.22 396.22 136.98 399.24 145.52 407.34 140.31 397.32 131.94 388.95 133.45 376.46" style="fill:#37474f"></polygon><polygon points="145.52 374.95 166.52 386.36 174.06 395.26 161.3 398.28 145.52 407.34 140.31 397.32 146.9 386.36 145.52 374.95" style="fill:#37474f"></polygon><polygon points="124.67 397.32 135.65 401.85 140.86 407.34 145.52 418.59 143.19 429.56 131.25 426.82 120.69 403.77 124.67 397.32" style="fill:#37474f"></polygon><polygon points="166.52 386.36 181.06 393.89 186.96 395.95 188.2 400.34 182.16 405.83 155.4 417.35 152.61 414.52 161.44 405 168.58 405 174.06 395.26 166.52 386.36" style="fill:#37474f"></polygon><polygon points="174.06 395.26 168.58 405 161.44 405 161.3 398.28 174.06 395.26" style="fill:#263238"></polygon><polygon points="185.18 416.67 179.42 418.59 176.26 415.57 163.64 417.63 181.89 410.22 185.18 416.67" style="fill:#263238"></polygon><polygon points="158.37 419.06 163.64 417.63 169.26 423.25 164.6 430.52 158.37 419.06" style="fill:#37474f"></polygon><polygon points="116.16 400.89 109.99 410.77 115.34 415.57 120.69 403.77 124.67 397.32 116.16 400.89" style="fill:#455a64"></polygon><polygon points="150.6 434.5 143.19 429.56 145.52 418.59 150.6 434.5" style="fill:#455a64"></polygon><polygon points="145.52 407.34 152.61 414.52 161.44 405 161.3 398.28 145.52 407.34" style="fill:#455a64"></polygon><polygon points="145.52 374.95 133.45 376.46 131.94 388.95 140.31 397.32 146.9 386.36 145.52 374.95" style="fill:#455a64"></polygon><polygon points="193 400.48 196.57 408.3 185.18 416.67 181.89 410.22 193 400.48" style="fill:#455a64"></polygon><polygon points="150.6 434.5 164.6 430.52 158.37 419.06 154.58 420.1 150.6 434.5" style="fill:#455a64"></polygon><polygon points="179.42 418.59 169.26 423.25 163.64 417.63 176.26 415.57 179.42 418.59" style="fill:#455a64"></polygon><polygon points="157.78 381.61 165.69 389.36 167.75 393.89 160.62 394.85 145.52 407.34 161.3 398.28 174.06 395.26 166.52 386.36 157.78 381.61" style="fill:#455a64"></polygon><polygon points="133.45 376.46 134.69 388.13 142.02 394.47 140.31 397.32 131.94 388.95 133.45 376.46" style="fill:#455a64"></polygon><polygon points="154.58 420.1 163.64 417.63 181.89 410.22 193 400.48 188.2 394.47 181.06 393.89 186.96 395.95 188.2 400.34 182.16 405.83 155.4 417.35 145.52 407.34 154.58 420.1" style="fill:#455a64"></polygon><g style="opacity:0.1"><polygon points="157.78 381.61 165.69 389.36 167.75 393.89 160.62 394.85 145.52 407.34 161.3 398.28 174.06 395.26 166.52 386.36 157.78 381.61" style="fill:#fff"></polygon><polygon points="133.45 376.46 134.69 388.13 142.02 394.47 140.31 397.32 131.94 388.95 133.45 376.46" style="fill:#fff"></polygon><polygon points="154.58 420.1 163.64 417.63 181.89 410.22 193 400.48 188.2 394.47 181.06 393.89 186.96 395.95 188.2 400.34 182.16 405.83 155.4 417.35 145.52 407.34 154.58 420.1" style="fill:#fff"></polygon></g></g><g id="freepik--rock--inject-37"><polygon points="106.35 423.54 105.89 428.9 110.58 426.94 116.62 429.43 119.5 432.46 122.06 438.65 124.86 447.42 127.05 439.48 122.06 432.46 117.36 428 110.88 426.33 106.35 423.54" style="fill:#263238"></polygon><polygon points="114.21 443.19 105.44 436.99 108.39 430.49 114.21 443.19" style="fill:#263238"></polygon><polygon points="115.42 415.45 106.35 423.54 110.88 426.33 117.36 428 122.06 432.46 119.19 426.94 114.58 422.33 115.42 415.45" style="fill:#37474f"></polygon><polygon points="122.06 414.62 133.62 420.9 137.78 425.81 130.75 427.47 122.06 432.46 119.19 426.94 122.82 420.9 122.06 414.62" style="fill:#37474f"></polygon><polygon points="110.58 426.94 116.62 429.43 119.5 432.46 122.06 438.65 120.78 444.7 114.21 443.19 108.39 430.49 110.58 426.94" style="fill:#37474f"></polygon><polygon points="133.62 420.9 141.63 425.05 144.88 426.18 145.56 428.6 142.24 431.62 127.5 437.97 125.97 436.41 130.83 431.17 134.76 431.17 137.78 425.81 133.62 420.9" style="fill:#37474f"></polygon><polygon points="137.78 425.81 134.76 431.17 130.83 431.17 130.75 427.47 137.78 425.81" style="fill:#263238"></polygon><polygon points="143.9 437.59 140.73 438.65 138.99 436.99 132.04 438.12 142.09 434.04 143.9 437.59" style="fill:#263238"></polygon><polygon points="129.13 438.91 132.04 438.12 135.13 441.22 132.57 445.23 129.13 438.91" style="fill:#37474f"></polygon><polygon points="105.89 428.9 102.49 434.35 105.44 436.99 108.39 430.49 110.58 426.94 105.89 428.9" style="fill:#455a64"></polygon><polygon points="124.86 447.42 120.78 444.7 122.06 438.65 124.86 447.42" style="fill:#455a64"></polygon><polygon points="122.06 432.46 125.97 436.41 130.83 431.17 130.75 427.47 122.06 432.46" style="fill:#455a64"></polygon><polygon points="122.06 414.62 115.42 415.45 114.58 422.33 119.19 426.94 122.82 420.9 122.06 414.62" style="fill:#455a64"></polygon><polygon points="148.21 428.68 150.17 432.99 143.9 437.59 142.09 434.04 148.21 428.68" style="fill:#455a64"></polygon><polygon points="124.86 447.42 132.57 445.23 129.13 438.91 127.05 439.48 124.86 447.42" style="fill:#455a64"></polygon><polygon points="140.73 438.65 135.13 441.22 132.04 438.12 138.99 436.99 140.73 438.65" style="fill:#455a64"></polygon><polygon points="128.81 418.29 133.17 422.56 134.3 425.05 130.38 425.58 122.06 432.46 130.75 427.47 137.78 425.81 133.62 420.9 128.81 418.29" style="fill:#455a64"></polygon><polygon points="115.42 415.45 116.09 421.88 120.14 425.37 119.19 426.94 114.58 422.33 115.42 415.45" style="fill:#455a64"></polygon><polygon points="127.05 439.48 132.04 438.12 142.09 434.04 148.21 428.68 145.56 425.37 141.63 425.05 144.88 426.18 145.56 428.6 142.24 431.62 127.5 437.97 122.06 432.46 127.05 439.48" style="fill:#455a64"></polygon><g style="opacity:0.1"><polygon points="128.81 418.29 133.17 422.56 134.3 425.05 130.38 425.58 122.06 432.46 130.75 427.47 137.78 425.81 133.62 420.9 128.81 418.29" style="fill:#fff"></polygon><polygon points="115.42 415.45 116.09 421.88 120.14 425.37 119.19 426.94 114.58 422.33 115.42 415.45" style="fill:#fff"></polygon><polygon points="127.05 439.48 132.04 438.12 142.09 434.04 148.21 428.68 145.56 425.37 141.63 425.05 144.88 426.18 145.56 428.6 142.24 431.62 127.5 437.97 122.06 432.46 127.05 439.48" style="fill:#fff"></polygon></g></g></g><g id="freepik--Plants--inject-37"><g id="freepik--Leaves--inject-37"><path d="M374.31,379a6,6,0,0,0,4.54-3.55,5.9,5.9,0,0,0-.7-5.65,8.44,8.44,0,0,0-4,4.37A6,6,0,0,0,374.31,379Z" style="fill:#57B766"></path><path d="M374.31,379a6,6,0,0,0,4.54-3.55,5.9,5.9,0,0,0-.7-5.65,8.44,8.44,0,0,0-4,4.37A6,6,0,0,0,374.31,379Z" style="opacity:0.2"></path><path d="M375.53,375c-1.65,4.95-5.62,9.48-9.1,13.26a66.89,66.89,0,0,1-11.68,10.29A58.23,58.23,0,0,1,338,406.14a81.15,81.15,0,0,1-9.1,2c-3.57.57-7.23.72-10.77,1.42-.77.15-.3,1.3.31,1.34,6.36.41,13.31-1.09,19.42-2.75a59.19,59.19,0,0,0,18.24-8.25c8.59-6,17-14.67,19.79-25,.06-.22-.28-.11-.33,0Z" style="fill:#37474f"></path><path d="M345.82,411.72s.5,4.52,6.25,4.55,10.6-5.24,10.6-5.24-5.91-3.1-9.69-3.14C348.45,407.85,347.07,409.78,345.82,411.72Z" style="fill:#57B766"></path><path d="M345.82,411.72s.5,4.52,6.25,4.55,10.6-5.24,10.6-5.24-5.91-3.1-9.69-3.14C348.45,407.85,347.07,409.78,345.82,411.72Z" style="opacity:0.2"></path><path d="M340.36,400.55s3.4.3,4.88-5.25-2.38-11.58-2.38-11.58-4.49,4.93-5.49,8.58C336.18,396.67,338.33,399.68,340.36,400.55Z" style="fill:#57B766"></path><path d="M340.36,400.55s3.4.3,4.88-5.25-2.38-11.58-2.38-11.58-4.49,4.93-5.49,8.58C336.18,396.67,338.33,399.68,340.36,400.55Z" style="opacity:0.2"></path><path d="M360.36,402.45a6.33,6.33,0,0,0,5.85,2.27c3.91-.46,6.22-5.41,6.22-5.41s-4.62-3-8.31-1.65A5.52,5.52,0,0,0,360.36,402.45Z" style="fill:#57B766"></path><path d="M360.36,402.45a6.33,6.33,0,0,0,5.85,2.27c3.91-.46,6.22-5.41,6.22-5.41s-4.62-3-8.31-1.65A5.52,5.52,0,0,0,360.36,402.45Z" style="opacity:0.2"></path><path d="M353,391.18a6.35,6.35,0,0,0,4.83-4c1.51-3.65-1.7-8.07-1.7-8.07s-4.89,2.55-5.48,6.44A5.55,5.55,0,0,0,353,391.18Z" style="fill:#57B766"></path><path d="M353,391.18a6.35,6.35,0,0,0,4.83-4c1.51-3.65-1.7-8.07-1.7-8.07s-4.89,2.55-5.48,6.44A5.55,5.55,0,0,0,353,391.18Z" style="opacity:0.2"></path><path d="M370.44,391.8a6,6,0,0,0,5.32,1.62c3.48-.51,6.07-5,6.07-5s-4.58-2.29-6.62-1.77S370.44,391.8,370.44,391.8Z" style="fill:#57B766"></path><path d="M370.44,391.8a6,6,0,0,0,5.32,1.62c3.48-.51,6.07-5,6.07-5s-4.58-2.29-6.62-1.77S370.44,391.8,370.44,391.8Z" style="opacity:0.2"></path><path d="M367.18,370.22a5.61,5.61,0,0,1,2,4.49c0,3.09-3.32,5.82-3.32,5.82s-2.43-3.77-2.26-5.61S367.18,370.22,367.18,370.22Z" style="fill:#57B766"></path><path d="M367.18,370.22a5.61,5.61,0,0,1,2,4.49c0,3.09-3.32,5.82-3.32,5.82s-2.43-3.77-2.26-5.61S367.18,370.22,367.18,370.22Z" style="opacity:0.2"></path><path d="M356.46,411.92c-1,0-2.06-.06-3.08-.08s-2.07-.12-3.11-.21c-2.09-.2-4.17-.52-6.23-.92s-3.87-.81-5.79-1.3-3.55-1.2-5.35-1.68c-.53-.14-.59.72-.25.95a16.23,16.23,0,0,0,5.18,1.91c1.92.5,3.85,1,5.8,1.33a45.13,45.13,0,0,0,6,.78c1.18.06,2.34,0,3.52,0a25.77,25.77,0,0,0,3.19-.44c.13,0,.31-.33.11-.32Z" style="fill:#37474f"></path><path d="M367.87,400.72a9,9,0,0,1-4,.79c-1.33.09-2.66.24-4,.3a31.33,31.33,0,0,1-4.11-.07c-.83-.06-1.65-.13-2.47-.21a6.67,6.67,0,0,0-2.31-.08c-.31.09-.44.72-.1.86a11.19,11.19,0,0,0,2.51.44c.84.1,1.69.24,2.54.3a31.27,31.27,0,0,0,4.54,0c2.55-.14,5.57-.28,7.51-2.15.14-.14,0-.33-.14-.22Z" style="fill:#37474f"></path><path d="M342.17,391.82a25.47,25.47,0,0,0-1.22,3.8,22.15,22.15,0,0,0-.75,3.69,16.86,16.86,0,0,0,.05,3.48c.14,1,.32,2.44,1.09,3.18.21.21.74.24.79-.16.08-.58-.35-1.27-.49-1.83a9.48,9.48,0,0,1-.26-1.49,21.3,21.3,0,0,1-.1-3,22.23,22.23,0,0,1,1.23-7.68c.11-.27-.26-.19-.34,0Z" style="fill:#37474f"></path><path d="M355.1,383.34a8.49,8.49,0,0,0-1,1.39,22.34,22.34,0,0,0-.88,2.08,24,24,0,0,0-1.18,4.8,23.56,23.56,0,0,0-.17,4.6c.07,1.29-.22,3.15.82,4.13a.37.37,0,0,0,.6-.09,4.15,4.15,0,0,0,.05-1.79c0-.62,0-1.23-.06-1.85a30.41,30.41,0,0,1,0-4.05,31.11,31.11,0,0,1,.6-4.3,19.63,19.63,0,0,1,.65-2.27c.29-.81.55-1.66.88-2.45a.2.2,0,1,0-.34-.2Z" style="fill:#37474f"></path><path d="M377.38,390.24a28.09,28.09,0,0,1-4,.71c-1.24.16-2.48.39-3.72.53l-3.33.33a9.37,9.37,0,0,0-3.2.61c-.4.2-.3,1.06.21,1,1.22-.11,2.44-.41,3.67-.53s2.36-.2,3.53-.41,2.23-.42,3.32-.71a23.31,23.31,0,0,0,3.48-1.27c.15-.07.23-.34,0-.28Z" style="fill:#37474f"></path><path d="M366.29,375a17.8,17.8,0,0,0-.72,1.83,18.75,18.75,0,0,0-.4,2,30.65,30.65,0,0,0-.47,3.82,22.18,22.18,0,0,0,.31,3.73,15.45,15.45,0,0,0,.69,3.57.52.52,0,1,0,1-.36,14.47,14.47,0,0,1-.49-3.13,31.28,31.28,0,0,1-.33-3.33c0-1.16.13-2.33.19-3.49,0-.54.05-1.08.1-1.61a12,12,0,0,1,.51-2.92c.12-.31-.24-.35-.35-.09Z" style="fill:#37474f"></path></g><path d="M311.81,426.63c1.29-1.44,2.81-2.63,4.13-4,.41-.43.83-.86,1.26-1.28.86-.84,1.76-1.65,2.69-2.41a41.84,41.84,0,0,1,5.95-4.09,41.28,41.28,0,0,1,6.55-3c-1.24,1.79-2.43,5.51-1.54,8,1-1.39,2-4,3.58-5.67s4-2.22,6.27-2.48a34.9,34.9,0,0,1,11.92.72,1.9,1.9,0,0,1,1.41.88c.26.65-.25,1.33-.69,1.87a17.74,17.74,0,0,0-3.47,7.12c2.74-.34,4.58-3.1,7.22-3.94,2.2-.71,4.62,0,6.68,1.09a23.69,23.69,0,0,1,10.13,10,7.67,7.67,0,0,0-3.26,1.51c.13.75,1,1.09,1.66,1.42a9.65,9.65,0,0,1,4.5,5.07,18.75,18.75,0,0,1,1.1,3.58c.14.63.26,1.26.37,1.89a7.32,7.32,0,0,1,.24,1.45,16,16,0,0,0-1.62-.94,16.53,16.53,0,0,0-5-1.19,18.65,18.65,0,0,0-5.17,0c-1.44.25-2.13-1.77-2.22-2.89a10.83,10.83,0,0,1,.71-3.92,3.25,3.25,0,0,0-2.46,2.27,18.44,18.44,0,0,0-.63,3.47,2.63,2.63,0,0,1-.5,1.31,2.57,2.57,0,0,1-1,.66,16.57,16.57,0,0,1-6.39,1.35,3.28,3.28,0,0,1-1.59-.27,3.48,3.48,0,0,1-1.38-2,42.3,42.3,0,0,1-2.22-9.48,1.34,1.34,0,0,0-.36-.92c-.65-.51-1.42.49-1.61,1.29a24.38,24.38,0,0,0,.27,12.06c-4.55,1-9.34,1.81-13.83.54a5,5,0,0,1-2.62-1.47,5.62,5.62,0,0,1-1-2.35,55.54,55.54,0,0,1-1.51-14.13c-1.83.71-2.93,2.58-3.63,4.41a22.59,22.59,0,0,0-1.43,9.9c-.4-.23-.8-.46-1.18-.71A26.48,26.48,0,0,1,316.9,437a25.13,25.13,0,0,1-2.14-2.68A20.08,20.08,0,0,1,311.81,426.63Z" style="fill:#57B766"></path><path d="M311.81,426.63c1.29-1.44,2.81-2.63,4.13-4,.41-.43.83-.86,1.26-1.28.86-.84,1.76-1.65,2.69-2.41a41.84,41.84,0,0,1,5.95-4.09,41.28,41.28,0,0,1,6.55-3c-1.24,1.79-2.43,5.51-1.54,8,1-1.39,2-4,3.58-5.67s4-2.22,6.27-2.48a34.9,34.9,0,0,1,11.92.72,1.9,1.9,0,0,1,1.41.88c.26.65-.25,1.33-.69,1.87a17.74,17.74,0,0,0-3.47,7.12c2.74-.34,4.58-3.1,7.22-3.94,2.2-.71,4.62,0,6.68,1.09a23.69,23.69,0,0,1,10.13,10,7.67,7.67,0,0,0-3.26,1.51c.13.75,1,1.09,1.66,1.42a9.65,9.65,0,0,1,4.5,5.07,18.75,18.75,0,0,1,1.1,3.58c.14.63.26,1.26.37,1.89a7.32,7.32,0,0,1,.24,1.45,16,16,0,0,0-1.62-.94,16.53,16.53,0,0,0-5-1.19,18.65,18.65,0,0,0-5.17,0c-1.44.25-2.13-1.77-2.22-2.89a10.83,10.83,0,0,1,.71-3.92,3.25,3.25,0,0,0-2.46,2.27,18.44,18.44,0,0,0-.63,3.47,2.63,2.63,0,0,1-.5,1.31,2.57,2.57,0,0,1-1,.66,16.57,16.57,0,0,1-6.39,1.35,3.28,3.28,0,0,1-1.59-.27,3.48,3.48,0,0,1-1.38-2,42.3,42.3,0,0,1-2.22-9.48,1.34,1.34,0,0,0-.36-.92c-.65-.51-1.42.49-1.61,1.29a24.38,24.38,0,0,0,.27,12.06c-4.55,1-9.34,1.81-13.83.54a5,5,0,0,1-2.62-1.47,5.62,5.62,0,0,1-1-2.35,55.54,55.54,0,0,1-1.51-14.13c-1.83.71-2.93,2.58-3.63,4.41a22.59,22.59,0,0,0-1.43,9.9c-.4-.23-.8-.46-1.18-.71A26.48,26.48,0,0,1,316.9,437a25.13,25.13,0,0,1-2.14-2.68A20.08,20.08,0,0,1,311.81,426.63Z" style="opacity:0.30000000000000004"></path><path d="M311.5,425.84a53.79,53.79,0,0,1,15.77-3.07,76.83,76.83,0,0,1,16,.85,67.46,67.46,0,0,1,15.36,4.25,35.73,35.73,0,0,1,13.1,8.85,35.4,35.4,0,0,0-13.26-8.45,66.42,66.42,0,0,0-15.33-3.8,75.42,75.42,0,0,0-15.75-.43,52.84,52.84,0,0,0-15.24,3.38h0a.85.85,0,0,1-1.1-.5A.85.85,0,0,1,311.5,425.84Z" style="opacity:0.2"></path></g><g id="freepik--flask--inject-37"><g id="freepik--Ring--inject-37"><path d="M299,380.85C285.78,373.21,268.37,369,250,369s-35.78,4.21-49,11.85c-14.74,8.51-22.86,20.35-22.86,33.34S186.25,439,201,447.53c13.23,7.64,30.64,11.84,49,11.84s35.78-4.2,49-11.84c14.74-8.51,22.86-20.35,22.86-33.34S313.75,389.36,299,380.85ZM291.88,435c-23.13,13.35-60.63,13.35-83.76,0s-23.13-35,0-48.36,60.63-13.36,83.76,0S315,421.59,291.88,435Z" style="fill:#57B766"></path><path d="M299,380.85C285.78,373.21,268.37,369,250,369s-35.78,4.21-49,11.85c-14.74,8.51-22.86,20.35-22.86,33.34S186.25,439,201,447.53c13.23,7.64,30.64,11.84,49,11.84s35.78-4.2,49-11.84c14.74-8.51,22.86-20.35,22.86-33.34S313.75,389.36,299,380.85ZM291.88,435c-23.13,13.35-60.63,13.35-83.76,0s-23.13-35,0-48.36,60.63-13.36,83.76,0S315,421.59,291.88,435Z" style="fill:#fff;opacity:0.5"></path><path d="M299,447.53c10.7-6.18,17.9-14.1,21.05-22.95-1.62,3.95-7.17,14.82-25.31,22.67-23.87,10.34-59.32,11.08-87.46-1.72S177.85,409.35,182.17,399l-.07,0a31.47,31.47,0,0,0-4,15.21c0,13,8.12,24.83,22.86,33.34,13.23,7.64,30.64,11.84,49,11.84S285.78,455.17,299,447.53Z" style="fill:#57B766;opacity:0.1"></path><path d="M299,447.53c10.7-6.18,17.9-14.1,21.05-22.95-1.62,3.95-7.17,14.82-25.31,22.67-23.87,10.34-59.32,11.08-87.46-1.72S177.85,409.35,182.17,399l-.07,0a31.47,31.47,0,0,0-4,15.21c0,13,8.12,24.83,22.86,33.34,13.23,7.64,30.64,11.84,49,11.84S285.78,455.17,299,447.53Z" style="fill:#57B766;opacity:0.2"></path><path d="M191.24,406.44h0c1.59-7.26,7.2-14.28,16.86-19.85,23.13-13.36,60.63-13.36,83.76,0,9.42,5.43,15,12.24,16.75,19.31h0c-2.08-13.94-13-23.29-32.14-29.08-19.52-5.89-43.34-6-64,3.24C199,386.08,191.24,396.83,191.24,406.44Z" style="fill:#57B766;opacity:0.1"></path><path d="M191.24,406.44h0c1.59-7.26,7.2-14.28,16.86-19.85,23.13-13.36,60.63-13.36,83.76,0,9.42,5.43,15,12.24,16.75,19.31h0c-2.08-13.94-13-23.29-32.14-29.08-19.52-5.89-43.34-6-64,3.24C199,386.08,191.24,396.83,191.24,406.44Z" style="opacity:0.05"></path><path d="M313.88,400.73c-1.14-.66-3.1-1.08-2.74,1.73.63,4.87,1.05,12.11-1.91,19C303.71,434.15,285,447.09,244,448.67c0,0,22.48,4.75,44.8-3.71,19.77-7.49,25.24-16.66,28.37-28.1C319,410,316.87,402.46,313.88,400.73Z" style="fill:#fff;opacity:0.6000000000000001"></path></g><path d="M280.75,220.16V158.38l-61.49.13v61.65a17,17,0,0,1-10.64,15.72,108.68,108.68,0,1,0,82.79,0A17,17,0,0,1,280.75,220.16Z" style="fill:#57B766"></path><path d="M280.75,220.16V158.38l-61.49.13v61.65a17,17,0,0,1-10.64,15.72,108.68,108.68,0,1,0,82.79,0A17,17,0,0,1,280.75,220.16Z" style="fill:#fff;opacity:0.8"></path><path d="M158.94,355.4a93,93,0,1,0,23.47-82.94A93,93,0,0,0,158.94,355.4Z" style="fill:#57B766"></path><g style="opacity:0.30000000000000004"><path d="M237.08,254.62c-5.2,1.7-15.88,3.76-20.29,1.66-2.18-1.06-4.76-2.46-7.59-3.52A93.19,93.19,0,0,0,164.32,300a31,31,0,0,0,3,7.14c2.88,4.9,6.53,6.1,11,7.8s2.54,4,4.32,7.13,2.47,4.86,4.79,6.76-1.65,4-3.19,6.82-2.12,4.39-1.06,10.78,6.32,12.38,7.73,15-2.15,4.82-2.23,9.85-2.62,17.94.78,26.06,6.35,7.76,6.85,2.78-.28-9.92,3.22-13.11,9.1-1.18,12.24-7.59,4.36-5.86,7.89-7.6,2.48-3.95,6.3-8.66,5.55-9.46,1.64-12.36-6.81-3.19-9.6-8.91a47.85,47.85,0,0,0-12.48-15.49c-4.82-3.83-13.9-1.8-17.1-3.38s-4.2-8.37-3.55-10.82-1.74-3.53-4.27-3.36-3.61-1.61-3.71-5,5.68-6.57,9.84-6.16,6,2.7,5.9,8.13a10.44,10.44,0,0,0,6.53,10.29c3.62,1.62,2-2.73-.26-5.9s-2-5.64,1.11-11.21,8-4.24,12.64-9,4.67-.57,8.32.64,3.45-.92,5.43-4.08,6.23.61,10.64-1.47-3-7.84-1.81-11.49,4.9-2.87,3.82-8.85,1.82-5.69,3.68-7.52S242.28,252.92,237.08,254.62Zm-8,12.72c-1.73,2.56-2.7,1.84-5.27,4.51a11.57,11.57,0,0,1-8.12,3.7c-2.09-.11-4.82-4.35-4.59-6.63s3.59-2.37,7.35-2.2a20.77,20.77,0,0,0,11-2.9C232.47,262.22,230.84,264.8,229.12,267.34Zm88.32,120.27c-2.16-.77-2.1,0-3.72,1.52s-3.88,3.18-3.85,5.07-.21,4.17,1.58,3.09,1.53-2.78,3.9-3.39S320.68,388.77,317.44,387.61ZM262.3,275.24c2.45.66,10.86,2.54,12.58,0s2.94-2.15,5.51-4.87,3.19-6.85.72-7.31-3,.55-7.08-.49-5.52-4.11-9.68-4.1-8.41-1.69-11.5-2.18c-4.2-.67-9.84-.14-6.37,2.93s5.92,3.73,5.41,6.83-3.11,6-2.5,8.34,1.79,5.21,3.51,4.75S259.85,274.58,262.3,275.24Zm67.94,14.13a3.49,3.49,0,0,1-3.13.45c-4.06-1.44-7.89-2.88-9.36-5.11s-4.63-4-6.86-2.57-7.61,2.6-10.82,3.34-5,2.22-5.58,5.52-.28,5-2.54,4.57-4.24-1.68-4.89-3.63-2.8-3.42-5.25.11-2.2,5.24-.6,6,4,1.65,1.67,4.35-5.15,1.17-7.09,3.92-3.73,5.92-2.11,6.49,7.12.08,8.57-1.88,1.8-1.28,4.35-1.66a6.89,6.89,0,0,1,6.5,2.1c1.5,1.84,4.43,1.89,4.24,3.87s-1.63,3.74-1.3,4.6,1.75-.66,1.75-.66.59,2.41.93,1.16.66-4.57,1.83-3.61,3-.34,3.61,1.61,1.18,2.82,3.86,3.3,4.77.49,4.84,2,1.05,4.3-1.27,4.28-3.63-1.4-5.85-2.25-4.4,0-6.64-.66-3.12-4.51-6.05-6.68-6.29-4.18-11.79-3.68a29.13,29.13,0,0,0-15.83,7.45c-3.72,3.62-7.81,4.67-7.34,12.69s1.26,10.61,3.77,12.74,8.05,1.21,11.06,2.57,8.33,4.8,8.14,13.17.28,7.79-1.69,12.82a28.47,28.47,0,0,0-1.33,15.6c1,5.12,3.09,11.21,6.33,12.37a8.84,8.84,0,0,0,9.25-2.44c2.34-2.5,5-8.1,8.44-11.12s8.34-3.79,8.11-7.79,2.41-11.71,5.42-12.47,9.38-3.67,9.73-7.21-1-6.59,4.47-9.2,5.49-.3,8.47-5a6.55,6.55,0,0,1,4.27-3l0-.27A92.59,92.59,0,0,0,330.24,289.37Z" style="fill:#fff"></path></g><path d="M288.2,259.42c-55.36-27.15-73.28,10.69-46.79,41.22s78,48.14,88.08,32.88S329.35,279.6,288.2,259.42Z" style="fill:#fff;opacity:0.15"></path><g style="opacity:0.1"><path d="M217.05,377.88C174,336.79,192.46,260.7,236.33,244.39h0c-1.78.26-3.56.56-5.35.94a93,93,0,1,0,97.25,141.35C312.28,402.19,258.54,417.44,217.05,377.88Z"></path></g><path d="M173.09,304c11.36-24.91,28.49-38,42.06-44.79A38.3,38.3,0,0,0,236.29,225V158.47l-17,0v61.65a17,17,0,0,1-10.64,15.72A108.69,108.69,0,0,0,250,445.07c1.34,0,2.67,0,4-.08l.27-.12C156,437.17,152.66,348.81,173.09,304Z" style="fill:#57B766;opacity:0.2"></path><path d="M236.29,424.33c-75-18.67-93.08-117.75-77.88-146.46a108.69,108.69,0,1,0,191.35,101.7S311.36,443,236.29,424.33Z" style="fill:#57B766;opacity:0.2"></path><path d="M280.74,180.66V158.38l-61.49.13v22.15a30.55,30.55,0,0,0,4,2.75c14.76,8.52,38.68,8.52,53.44,0A31.87,31.87,0,0,0,280.74,180.66Z" style="fill:#57B766;opacity:0.2"></path><path d="M299.48,257.66c-13.23-3.21-31.3,7.13-18.61,20.95,15.93,17.43,35.93,25.75,38.32,51.61.7,7.55,3.94,11.53,7.5,12.54,4,1.13,8.55-.51,11.32-6.1C353.4,306.7,331.52,265,299.48,257.66Z" style="fill:#fff;opacity:0.4"></path><path d="M338.31,365.49a8.76,8.76,0,1,1-7.25-10.05A8.77,8.77,0,0,1,338.31,365.49Z" style="fill:#fff;opacity:0.4"></path><path d="M287.78,138c0-5.58-3.69-11.16-11.07-15.42-14.76-8.52-38.68-8.52-53.44,0-7.38,4.26-11.07,9.84-11.07,15.42h0v16.33h0c0,5.58,3.69,11.16,11.07,15.42,14.76,8.52,38.68,8.52,53.44,0,7.38-4.26,11.07-9.84,11.07-15.42h0V138Z" style="fill:#57B766"></path><path d="M287.78,138c0-5.58-3.69-11.16-11.07-15.42-14.76-8.52-38.68-8.52-53.44,0-7.38,4.26-11.07,9.84-11.07,15.42h0v16.33h0c0,5.58,3.69,11.16,11.07,15.42,14.76,8.52,38.68,8.52,53.44,0,7.38-4.26,11.07-9.84,11.07-15.42h0V138Z" style="fill:#fff;opacity:0.5"></path><path d="M279.18,168.18c-11.09,5.08-31.74,7.66-42.77,3-11.67-4.92-17.45-9.9-17.45-21.14V125.58c-4.49,3.73-6.76,8.07-6.76,12.42h0v16.33h0c0,5.58,3.69,11.16,11.07,15.42,14.76,8.52,38.68,8.52,53.44,0C277.59,169.25,278.4,168.72,279.18,168.18Z" style="fill:#57B766;opacity:0.30000000000000004"></path><path d="M223.27,153.43C238,162,262,162,276.71,153.43s14.76-22.33,0-30.85-38.68-8.52-53.44,0S208.51,144.91,223.27,153.43Z" style="fill:#57B766"></path><path d="M223.27,153.43C238,162,262,162,276.71,153.43s14.76-22.33,0-30.85-38.68-8.52-53.44,0S208.51,144.91,223.27,153.43Z" style="fill:#fff;opacity:0.7000000000000001"></path><path d="M233.47,125.29c-11.92,3.14-15.83,12.15-10.61,19.18s15.07,12.72,32.82,10.39,21.44-11.86,21.43-14.14Z" style="fill:#fff;opacity:0.7000000000000001"></path><path d="M230.52,149.24c10.75,6.21,28.19,6.21,38.94,0s10.75-16.27,0-22.48-28.19-6.2-38.94,0S219.77,143,230.52,149.24Z" style="fill:#57B766"></path><path d="M230.52,149.24c10.75,6.21,28.19,6.21,38.94,0s10.75-16.27,0-22.48-28.19-6.2-38.94,0S219.77,143,230.52,149.24Z" style="fill:#fff;opacity:0.4"></path><path d="M230.52,146.22a23.53,23.53,0,0,0-2.27,1.51,21.81,21.81,0,0,0,2.27,1.51c10.75,6.21,28.19,6.21,38.94,0a23.1,23.1,0,0,0,2.28-1.51,25,25,0,0,0-2.28-1.51C258.71,140,241.27,140,230.52,146.22Z" style="fill:#fff;opacity:0.4"></path></g><g id="freepik--plants--inject-37"><path d="M174.39,440.07c-9.13-2.59-23.73-6-25.84-16.4,4.44-1,7.73-1.61,10.1-4.4a38.91,38.91,0,0,1-12.53-.38c-2.24-3.84-3.2-6.05-1.81-12,2.56-.65,6.17-.9,10.29-3.09-3.84-.39-7.46-1.34-9.88-3.53,0-3.2,3.44-9.3,2.38-15.14A165,165,0,0,1,166.52,391c1.37,1.62,2.16,3-.08,8.09a14.32,14.32,0,0,0,4.38-5.22c9.6,3.85,16.12,9.53,11.15,20.86a50.67,50.67,0,0,0,6.07-5.92c10.09,5.38,6.27,23.13-1.73,32.34C183.9,441.39,181.21,441.23,174.39,440.07Z" style="fill:#57B766"></path><path d="M155.75,393.3a56.4,56.4,0,0,1,9.14,8.74,90,90,0,0,1,7.58,10.19,75.33,75.33,0,0,1,6,11.25A45.52,45.52,0,0,1,182,435.93l-2.57.23a43.27,43.27,0,0,0-2.72-12,75.4,75.4,0,0,0-5.32-11.29,89.56,89.56,0,0,0-7-10.45A56.3,56.3,0,0,0,155.75,393.3Z" style="opacity:0.2"></path><path d="M204.31,444.09c-1.2-1.55-2.63-2.88-3.85-4.39-.38-.48-.77-.95-1.17-1.4-.8-.92-1.64-1.8-2.52-2.65a43.83,43.83,0,0,0-5.66-4.59,43.24,43.24,0,0,0-6.37-3.57c1.11,1.91,2,5.76.9,8.24-.85-1.49-1.68-4.21-3.15-6s-3.84-2.56-6.12-3a35.21,35.21,0,0,0-12.07-.23,1.87,1.87,0,0,0-1.49.77c-.32.63.13,1.36.53,1.94a17.85,17.85,0,0,1,2.94,7.46c-2.75-.57-4.38-3.49-7-4.55-2.17-.89-4.67-.33-6.84.57a23.87,23.87,0,0,0-11,9.29,7.6,7.6,0,0,1,3.16,1.79c-.19.74-1.07,1-1.78,1.29a9.78,9.78,0,0,0-4.95,4.75,20.27,20.27,0,0,0-1.4,3.53c-.18.62-.35,1.25-.51,1.88a7.25,7.25,0,0,0-.37,1.44,14.92,14.92,0,0,1,1.71-.82,16.94,16.94,0,0,1,5.15-.8,18.91,18.91,0,0,1,5.2.45c1.43.37,2.29-1.6,2.47-2.73a10.93,10.93,0,0,0-.4-4,3.3,3.3,0,0,1,2.3,2.49,19.08,19.08,0,0,1,.36,3.55,2.69,2.69,0,0,0,.39,1.36,2.74,2.74,0,0,0,1,.74,16.8,16.8,0,0,0,6.34,1.88,3.29,3.29,0,0,0,1.62-.15,3.53,3.53,0,0,0,1.56-1.94,43.06,43.06,0,0,0,3-9.38,1.34,1.34,0,0,1,.44-.9c.7-.46,1.39.61,1.51,1.43A24.43,24.43,0,0,1,167,460c4.5,1.42,9.27,2.58,13.9,1.66a5.12,5.12,0,0,0,2.76-1.28,5.61,5.61,0,0,0,1.17-2.29,56,56,0,0,0,2.65-14.12c1.79.86,2.75,2.83,3.31,4.74a22.8,22.8,0,0,1,.65,10.09c.42-.19.84-.4,1.25-.62a27,27,0,0,0,5.64-4,26,26,0,0,0,2.38-2.54A20.57,20.57,0,0,0,204.31,444.09Z" style="fill:#57B766"></path><path d="M204.31,444.09c-1.2-1.55-2.63-2.88-3.85-4.39-.38-.48-.77-.95-1.17-1.4-.8-.92-1.64-1.8-2.52-2.65a43.83,43.83,0,0,0-5.66-4.59,43.24,43.24,0,0,0-6.37-3.57c1.11,1.91,2,5.76.9,8.24-.85-1.49-1.68-4.21-3.15-6s-3.84-2.56-6.12-3a35.21,35.21,0,0,0-12.07-.23,1.87,1.87,0,0,0-1.49.77c-.32.63.13,1.36.53,1.94a17.85,17.85,0,0,1,2.94,7.46c-2.75-.57-4.38-3.49-7-4.55-2.17-.89-4.67-.33-6.84.57a23.87,23.87,0,0,0-11,9.29,7.6,7.6,0,0,1,3.16,1.79c-.19.74-1.07,1-1.78,1.29a9.78,9.78,0,0,0-4.95,4.75,20.27,20.27,0,0,0-1.4,3.53c-.18.62-.35,1.25-.51,1.88a7.25,7.25,0,0,0-.37,1.44,14.92,14.92,0,0,1,1.71-.82,16.94,16.94,0,0,1,5.15-.8,18.91,18.91,0,0,1,5.2.45c1.43.37,2.29-1.6,2.47-2.73a10.93,10.93,0,0,0-.4-4,3.3,3.3,0,0,1,2.3,2.49,19.08,19.08,0,0,1,.36,3.55,2.69,2.69,0,0,0,.39,1.36,2.74,2.74,0,0,0,1,.74,16.8,16.8,0,0,0,6.34,1.88,3.29,3.29,0,0,0,1.62-.15,3.53,3.53,0,0,0,1.56-1.94,43.06,43.06,0,0,0,3-9.38,1.34,1.34,0,0,1,.44-.9c.7-.46,1.39.61,1.51,1.43A24.43,24.43,0,0,1,167,460c4.5,1.42,9.27,2.58,13.9,1.66a5.12,5.12,0,0,0,2.76-1.28,5.61,5.61,0,0,0,1.17-2.29,56,56,0,0,0,2.65-14.12c1.79.86,2.75,2.83,3.31,4.74a22.8,22.8,0,0,1,.65,10.09c.42-.19.84-.4,1.25-.62a27,27,0,0,0,5.64-4,26,26,0,0,0,2.38-2.54A20.57,20.57,0,0,0,204.31,444.09Z" style="opacity:0.30000000000000004"></path><path d="M204.68,443.31A54.77,54.77,0,0,0,189,439a77.3,77.3,0,0,0-16.16-.41,67.76,67.76,0,0,0-15.84,3c-5.08,1.69-10.05,4.12-13.91,7.87a35.65,35.65,0,0,1,14-7.46,66.9,66.9,0,0,1,15.76-2.6,76.31,76.31,0,0,1,15.92.83,53.14,53.14,0,0,1,15.1,4.63h0a.86.86,0,0,0,.72-1.57Z" style="opacity:0.2"></path></g></g><g id="freepik--speech-bubble--inject-37"><g id="freepik--speech-bubble--inject-37"><g id="freepik--speech-bubble--inject-37"><path d="M284.79,56.4a34.72,34.72,0,0,1-9.37,23.77l-2.88,2.75A34.76,34.76,0,0,1,223.47,34l2.74-2.89A34.76,34.76,0,0,1,284.79,56.4Z" style="fill:#fff"></path><path d="M249.94,18.72a37.73,37.73,0,0,0-6.16,74.94L248,104.59a2.19,2.19,0,0,0,4.09,0l4.22-11a37.73,37.73,0,0,0-6.4-74.92ZM284.79,56.4a34.72,34.72,0,0,1-9.37,23.77l-2.88,2.75A34.76,34.76,0,0,1,223.47,34l2.74-2.89A34.76,34.76,0,0,1,284.79,56.4Z" style="fill:#455a64"></path><path d="M284.79,56.4a34.72,34.72,0,0,1-9.37,23.77l-2.88,2.75A34.76,34.76,0,0,1,223.47,34l2.74-2.89A34.76,34.76,0,0,1,284.79,56.4Z" style="fill:#fff;opacity:0.7000000000000001"></path></g><path d="M253.91,60.25c21.89.86,14.9-25.85,14.9-25.85S242.19,41.74,253.91,60.25Z" style="fill:#57B766"></path><path d="M245.73,67.27c-16.41,6-17.62-16-17.62-16S250.11,50.35,245.73,67.27Z" style="fill:#57B766"></path><path d="M253.51,69.15a48.89,48.89,0,0,1,1.22-8.51,40.71,40.71,0,0,1,2.81-8.15,37.67,37.67,0,0,1,4.56-7.42,27.1,27.1,0,0,0-3,3.24A28.19,28.19,0,0,0,256.56,52a35.72,35.72,0,0,0-3.49,8.22A42.71,42.71,0,0,0,251.56,69a44.06,44.06,0,0,0-.09,4.45,45.16,45.16,0,0,0-4.72-6.15,54.87,54.87,0,0,0-4.37-4.26,48.88,48.88,0,0,0-4.8-3.72c1.45,1.4,2.88,2.82,4.22,4.31s2.66,3,3.88,4.58a58.37,58.37,0,0,1,3.46,4.84,39.32,39.32,0,0,1,2.38,4.3,1.15,1.15,0,0,0,1.36.6h0a1.14,1.14,0,0,0,.79-1.22A50.79,50.79,0,0,1,253.51,69.15Z" style="fill:#57B766"></path><path d="M253.51,69.15a48.89,48.89,0,0,1,1.22-8.51,40.71,40.71,0,0,1,2.81-8.15,37.67,37.67,0,0,1,4.56-7.42,27.1,27.1,0,0,0-3,3.24A28.19,28.19,0,0,0,256.56,52a35.72,35.72,0,0,0-3.49,8.22A42.71,42.71,0,0,0,251.56,69a44.06,44.06,0,0,0-.09,4.45,45.16,45.16,0,0,0-4.72-6.15,54.87,54.87,0,0,0-4.37-4.26,48.88,48.88,0,0,0-4.8-3.72c1.45,1.4,2.88,2.82,4.22,4.31s2.66,3,3.88,4.58a58.37,58.37,0,0,1,3.46,4.84,39.32,39.32,0,0,1,2.38,4.3,1.15,1.15,0,0,0,1.36.6h0a1.14,1.14,0,0,0,.79-1.22A50.79,50.79,0,0,1,253.51,69.15Z" style="opacity:0.30000000000000004"></path></g></g><g id="freepik--Charts--inject-37"><g id="freepik--speech-bubble--inject-37"><g id="freepik--speech-bubble--inject-37"><path d="M384,104.3c.2,0,.22-.24.22-.34V81.3l5.75.83a.47.47,0,0,0,.48-.29.43.43,0,0,0-.1-.5l-6.13-6.24V68.4a1.45,1.45,0,0,0-.66-1.13l-37.1-21.42a.49.49,0,0,0-.23-.08c-.2,0-.22.24-.22.34V81.67a1.46,1.46,0,0,0,.65,1.13l37.1,21.42a.52.52,0,0,0,.24.08Z" style="fill:#fafafa"></path><path d="M346.25,46a.3.3,0,0,1,.13.05l37.1,21.42a1.26,1.26,0,0,1,.56,1v6.78l.11.12,6.08,6.18a.26.26,0,0,1,.06.29.27.27,0,0,1-.24.16H390l-5.5-.79-.46-.07V104a.27.27,0,0,1,0,.15s-.05,0-.13-.06l-37.1-21.42a1.28,1.28,0,0,1-.55-1V46.11a.33.33,0,0,1,0-.14m0-.4c-.25,0-.42.2-.42.54V81.67a1.67,1.67,0,0,0,.75,1.3l37.1,21.43a.72.72,0,0,0,.34.1c.25,0,.42-.2.42-.54V81.53l5.5.8h.11a.66.66,0,0,0,.47-1.13L384.44,75V68.4a1.67,1.67,0,0,0-.76-1.31l-37.1-21.42a.65.65,0,0,0-.33-.1Z" style="fill:#57B766"></path><path d="M346.25,46a.3.3,0,0,1,.13.05l37.1,21.42a1.26,1.26,0,0,1,.56,1v6.78l.11.12,6.08,6.18a.26.26,0,0,1,.06.29.27.27,0,0,1-.24.16H390l-5.5-.79-.46-.07V104a.27.27,0,0,1,0,.15s-.05,0-.13-.06l-37.1-21.42a1.28,1.28,0,0,1-.55-1V46.11a.33.33,0,0,1,0-.14m0-.4c-.25,0-.42.2-.42.54V81.67a1.67,1.67,0,0,0,.75,1.3l37.1,21.43a.72.72,0,0,0,.34.1c.25,0,.42-.2.42-.54V81.53l5.5.8h.11a.66.66,0,0,0,.47-1.13L384.44,75V68.4a1.67,1.67,0,0,0-.76-1.31l-37.1-21.42a.65.65,0,0,0-.33-.1Z" style="fill:#fff;opacity:0.30000000000000004"></path></g><g id="freepik--Chart--inject-37"><path d="M378,97.07c.12.07.22,0,.22-.2V69.81a.57.57,0,0,0-.22-.46c-.12-.07-.21,0-.21.21V96.62A.56.56,0,0,0,378,97.07Z" style="fill:#455a64"></path><path d="M349.79,80.79l30.79,17.78c.12.07.21,0,.21-.21a.58.58,0,0,0-.21-.46L349.79,80.13c-.12-.07-.22,0-.22.2A.57.57,0,0,0,349.79,80.79Z" style="fill:#455a64"></path><polygon points="372.68 71.79 376.46 73.97 376.46 92.97 372.68 90.79 372.68 71.79" style="fill:#57B766"></polygon><polygon points="372.68 71.79 376.46 73.97 376.46 92.97 372.68 90.79 372.68 71.79" style="fill:#fff;opacity:0.2"></polygon><polygon points="367.31 81.87 371.09 84.05 371.09 89.87 367.31 87.69 367.31 81.87" style="fill:#57B766"></polygon><polygon points="361.94 75.71 365.72 77.89 365.72 86.77 361.94 84.59 361.94 75.71" style="fill:#57B766"></polygon><polygon points="361.94 75.71 365.72 77.89 365.72 86.77 361.94 84.59 361.94 75.71" style="fill:#fff;opacity:0.30000000000000004"></polygon><polygon points="356.57 61.43 360.35 63.61 360.35 83.67 356.57 81.49 356.57 61.43" style="fill:#57B766"></polygon><polygon points="351.2 69.74 354.98 71.93 354.98 80.57 351.2 78.39 351.2 69.74" style="fill:#57B766"></polygon><polygon points="351.2 69.74 354.98 71.93 354.98 80.57 351.2 78.39 351.2 69.74" style="fill:#fff;opacity:0.4"></polygon></g></g><g id="freepik--speech-bubble--inject-37"><g id="freepik--speech-bubble--inject-37"><path d="M117.64,104.3c-.19,0-.22-.24-.22-.34V81.3l-5.74.83a.49.49,0,0,1-.49-.29.47.47,0,0,1,.1-.5l6.13-6.24V68.4a1.45,1.45,0,0,1,.66-1.13l37.1-21.42a.52.52,0,0,1,.24-.08c.19,0,.22.24.22.34V81.67A1.45,1.45,0,0,1,155,82.8l-37.1,21.42a.52.52,0,0,1-.24.08Z" style="fill:#fafafa"></path><path d="M155.41,46a.28.28,0,0,1,0,.14V81.67a1.26,1.26,0,0,1-.56,1l-37.1,21.42c-.08,0-.13,0-.13.06a.43.43,0,0,1,0-.15V81.07l-.45.07-5.51.79h0a.25.25,0,0,1-.24-.16.26.26,0,0,1,.05-.29l6.08-6.18.11-.12V68.4a1.26,1.26,0,0,1,.56-1L155.28,46a.35.35,0,0,1,.13-.05m0-.4a.69.69,0,0,0-.34.1L118,67.09a1.67,1.67,0,0,0-.76,1.31V75l-6.07,6.18a.66.66,0,0,0,.47,1.13h.1l5.5-.8V104c0,.34.17.54.42.54a.69.69,0,0,0,.34-.1L155.08,83a1.69,1.69,0,0,0,.76-1.31V46.11c0-.34-.17-.54-.42-.54Z" style="fill:#57B766"></path><path d="M155.41,46a.28.28,0,0,1,0,.14V81.67a1.26,1.26,0,0,1-.56,1l-37.1,21.42c-.08,0-.13,0-.13.06a.43.43,0,0,1,0-.15V81.07l-.45.07-5.51.79h0a.25.25,0,0,1-.24-.16.26.26,0,0,1,.05-.29l6.08-6.18.11-.12V68.4a1.26,1.26,0,0,1,.56-1L155.28,46a.35.35,0,0,1,.13-.05m0-.4a.69.69,0,0,0-.34.1L118,67.09a1.67,1.67,0,0,0-.76,1.31V75l-6.07,6.18a.66.66,0,0,0,.47,1.13h.1l5.5-.8V104c0,.34.17.54.42.54a.69.69,0,0,0,.34-.1L155.08,83a1.69,1.69,0,0,0,.76-1.31V46.11c0-.34-.17-.54-.42-.54Z" style="fill:#fff;opacity:0.30000000000000004"></path></g><g id="freepik--chart--inject-37"><path d="M135.55,62.23l0,13.05-7.94,12.65c-2.8-3.58-2-12.54,2.39-19.62A17.38,17.38,0,0,1,135.55,62.23Z" style="fill:#57B766"></path><path d="M135.55,62.23l0,13.05-7.94,12.65c-2.8-3.58-2-12.54,2.39-19.62A17.38,17.38,0,0,1,135.55,62.23Z" style="fill:#fff;opacity:0.2"></path><path d="M146.32,73.74c-1.57,7.93-7,15.3-12.43,16.62A5.29,5.29,0,0,1,128.53,89l8-12.9Z" style="fill:#57B766"></path><path d="M146.32,73.74c-1.57,7.93-7,15.3-12.43,16.62A5.29,5.29,0,0,1,128.53,89l8-12.9Z" style="fill:#fff;opacity:0.30000000000000004"></path><path d="M146.53,72.37l-9.39,2.3,5.27-13.87C145.76,62.06,147.35,66.5,146.53,72.37Z" style="fill:#57B766"></path><path d="M141.41,60.7l-4.75,12.52V61.57A6.61,6.61,0,0,1,141.41,60.7Z" style="fill:#57B766"></path><path d="M141.41,60.7l-4.75,12.52V61.57A6.61,6.61,0,0,1,141.41,60.7Z" style="fill:#fff;opacity:0.5"></path></g></g></g></svg>