<svg width="825" height="263" viewBox="0 0 825 263" fill="none" xmlns="http://www.w3.org/2000/svg">
<g clip-path="url(#clip0_201_72)">
<path d="M282.955 191.426C280.823 191.426 278.776 190.484 276.815 188.599C274.938 186.715 274 184.745 274 182.689C274 180.633 274.299 179.005 274.896 177.806L345.131 16.5529C345.728 15.268 346.837 13.9831 348.457 12.6983C350.163 11.4134 351.826 10.7709 353.447 10.7709C358.052 10.7709 361.165 12.6983 362.786 16.5529L433.149 177.549C433.661 178.663 433.917 179.905 433.917 181.275C433.917 183.674 433.107 185.944 431.486 188.085C429.951 190.141 427.947 191.169 425.473 191.169C420.441 191.169 417.115 189.199 415.495 185.259L389.78 126.282H318.649L292.422 185.516C290.802 189.456 287.646 191.426 282.955 191.426ZM353.959 44.5635L326.965 107.009H381.336L353.959 44.5635Z" fill="white"/>
<path d="M466.924 37.2396C463.256 37.2396 460.015 35.9119 457.201 33.2565C454.472 30.601 453.107 27.3888 453.107 23.6198C453.107 19.8508 454.472 16.6386 457.201 13.9831C460.015 11.3277 463.256 10 466.924 10C470.677 10 473.918 11.3277 476.647 13.9831C479.376 16.6386 480.741 19.8508 480.741 23.6198C480.741 27.3888 479.376 30.601 476.647 33.2565C473.918 35.9119 470.677 37.2396 466.924 37.2396ZM457.585 65.1216C457.585 62.8945 458.608 60.9672 460.655 59.3397C462.702 57.6265 464.621 56.7699 466.412 56.7699C469.397 56.7699 471.871 57.6693 473.832 59.4681C475.794 61.267 476.775 63.6226 476.775 66.535L477.031 181.789C477.031 184.445 476.092 186.715 474.216 188.599C472.34 190.484 470.08 191.426 467.436 191.426C464.792 191.426 462.532 190.441 460.655 188.471C458.779 186.586 457.841 184.316 457.841 181.661L457.585 65.1216Z" fill="white"/>
<path d="M568.503 191.169C556.904 191.169 546.627 188.085 537.671 181.918C528.716 175.75 521.679 167.656 516.562 157.633C511.445 147.526 508.886 136.69 508.886 125.126C508.886 116.389 510.379 107.951 513.364 99.814C516.349 91.676 520.571 84.4378 526.029 78.099C531.488 71.6746 537.927 66.5779 545.347 62.8088C552.767 59.0398 560.87 57.1553 569.655 57.1553C578.013 57.1553 585.646 59.254 592.555 63.4513C599.463 67.6486 605.519 72.4883 610.721 77.9705V19.8936C610.721 17.2382 611.659 14.9682 613.536 13.0837C615.412 11.1992 617.672 10.257 620.316 10.257C623.046 10.257 625.306 11.1992 627.097 13.0837C628.973 14.9682 629.911 17.2382 629.911 19.8936V181.661C629.911 184.316 628.973 186.586 627.097 188.471C625.22 190.355 622.96 191.298 620.316 191.298C617.672 191.298 615.497 190.355 613.792 188.471C612.171 186.586 611.361 184.316 611.361 181.661L610.721 169.326C605.86 174.294 599.847 179.177 592.683 183.974C585.518 188.771 577.459 191.169 568.503 191.169ZM568.887 171.896C577.586 171.896 585.049 169.54 591.275 164.829C597.501 160.118 602.278 154.036 605.604 146.583C608.93 139.131 610.593 131.379 610.593 123.327C610.593 115.275 608.93 107.694 605.604 100.585C602.363 93.475 597.672 87.6928 591.531 83.2385C585.39 78.6986 578.013 76.4286 569.399 76.4286C561.126 76.4286 553.919 78.8271 547.778 83.624C541.637 88.3353 536.861 94.46 533.449 101.998C530.038 109.45 528.332 117.288 528.332 125.511C528.332 133.649 529.995 141.273 533.321 148.382C536.733 155.406 541.467 161.103 547.522 165.471C553.663 169.754 560.785 171.896 568.887 171.896Z" fill="white"/>
<path d="M669.571 10.6424C672.726 10.6424 675.2 11.7132 676.991 13.8547C678.867 15.9105 679.805 18.0948 679.805 20.4076V183.588C679.805 185.815 678.782 187.743 676.735 189.37C674.773 190.998 672.854 191.811 670.978 191.811C668.078 191.811 665.605 190.912 663.558 189.113C661.596 187.314 660.615 185.002 660.615 182.175V20.6646C660.615 18.1804 661.511 15.9105 663.302 13.8547C665.093 11.7132 667.183 10.6424 669.571 10.6424Z" fill="white"/>
<path d="M711.149 56.6414C712.94 56.6414 714.646 57.1982 716.267 58.3117C717.972 59.4253 719.166 60.753 719.849 62.2949L766.544 163.672L806.46 62.9373C807.142 61.2242 808.336 59.7679 810.042 58.5687C811.748 57.3695 813.539 56.7699 815.415 56.7699C818.741 56.7699 821.343 58.1833 823.219 61.01C825.181 63.7511 825.522 66.792 824.242 70.1327L767.824 212.241C765.35 218.409 762.024 224.705 757.845 231.129C753.666 237.553 748.463 242.95 742.237 247.319C736.011 251.773 728.591 254 719.977 254C717.333 254 715.072 253.058 713.196 251.173C711.32 249.289 710.382 247.019 710.382 244.363C710.382 241.879 711.277 239.652 713.068 237.682C714.859 235.797 716.991 234.812 719.465 234.727C725.35 234.298 730.254 232.542 734.177 229.459C738.101 226.461 741.384 222.606 744.028 217.895C746.757 213.269 749.06 208.301 750.937 202.99C752.898 197.765 754.817 192.797 756.694 188.085L702.45 70.5182C701.853 69.1476 701.554 67.7342 701.554 66.278C701.554 63.6226 702.492 61.3526 704.369 59.4681C706.245 57.5836 708.505 56.6414 711.149 56.6414Z" fill="white"/>
<path d="M138.614 209.837C145.587 202.737 157.133 202.982 164.105 210.081C164.947 210.939 165.687 211.86 166.326 212.83C166.358 212.879 166.39 212.928 166.421 212.977C171.862 221.188 187.763 221.655 194.262 215.038C201.235 207.941 201.476 196.184 194.502 189.084C201.474 196.184 212.78 196.185 219.753 189.085C226.726 181.986 226.966 170.231 219.992 163.13C226.965 170.229 238.271 170.231 245.243 163.131C249.384 158.917 251.173 153.149 250.485 147.671L251.697 146.927C282.663 115.4 282.82 63.8078 251.854 32.2809C220.889 0.754686 170.452 -2.07764 139.486 29.4493C108.234 -2.5477 57.383 -5.56995 25.176 27.2222C-5.78905 58.7477 -1.46807 114.261 29.4969 145.788L40.3689 156.985C41.2199 154.413 42.6509 151.997 44.6629 149.949L62.3799 131.91C69.3539 124.811 80.6589 125.121 87.6319 132.221C94.6049 139.32 94.6029 150.831 87.6309 157.93C94.6039 150.828 106.151 151.075 113.122 158.174C120.097 165.274 120.335 176.719 113.362 183.818C120.337 176.718 131.643 177.029 138.614 184.127C145.587 191.227 145.586 202.737 138.614 209.837Z" fill="#57B766"/>
<path d="M70.154 175.903L87.631 157.93C94.603 150.831 94.605 139.32 87.632 132.221C80.659 125.121 69.354 124.811 62.38 131.91L44.663 149.949C42.651 151.997 41.22 154.413 40.369 156.985C40.298 157.198 40.231 157.412 40.169 157.627C38.371 163.811 39.868 170.777 44.663 175.658C51.635 182.758 63.181 183.002 70.154 175.903Z" fill="#57B766"/>
<path d="M95.6459 201.856L113.362 183.818C120.335 176.719 120.097 165.274 113.122 158.174C106.151 151.075 94.6039 150.828 87.6309 157.93L70.1539 175.903C63.1829 183.002 63.1809 194.511 70.1529 201.611C77.1269 208.71 88.6719 208.955 95.6459 201.856Z" fill="#57B766"/>
<path d="M121.137 227.809L138.614 209.837C145.586 202.737 145.587 191.227 138.614 184.127C131.643 177.029 120.337 176.718 113.362 183.818L95.646 201.856C88.673 208.954 88.671 220.465 95.646 227.565C102.618 234.664 114.163 234.909 121.137 227.809Z" fill="#57B766"/>
<path d="M121.136 253.518C128.109 260.617 139.415 260.928 146.388 253.828L164.105 235.789C170.193 229.591 170.966 220.029 166.421 212.977C166.389 212.929 166.357 212.88 166.326 212.83C165.687 211.86 164.947 210.939 164.105 210.081C157.133 202.982 145.587 202.737 138.614 209.837L121.137 227.809C114.166 234.909 114.163 246.418 121.136 253.518Z" fill="#57B766"/>
<path d="M121.137 227.809C114.166 234.909 114.163 246.418 121.136 253.518C128.109 260.617 139.415 260.928 146.388 253.828L164.105 235.789C170.193 229.591 170.966 220.029 166.421 212.977M121.137 227.809L138.614 209.837M121.137 227.809C114.163 234.909 102.618 234.664 95.6459 227.565C88.6709 220.465 88.6729 208.954 95.6459 201.856M166.421 212.977C171.862 221.188 187.763 221.655 194.262 215.038C201.235 207.941 201.476 196.184 194.502 189.084M166.421 212.977C166.39 212.928 166.358 212.879 166.326 212.83M166.421 212.977C166.389 212.929 166.357 212.88 166.326 212.83M138.614 209.837C145.587 202.737 157.133 202.982 164.105 210.081C164.947 210.939 165.687 211.86 166.326 212.83M138.614 209.837C145.586 202.737 145.587 191.227 138.614 184.127C131.643 177.029 120.337 176.718 113.362 183.818M95.6459 201.856L113.362 183.818M95.6459 201.856C88.6719 208.955 77.1269 208.71 70.1529 201.611C63.1809 194.511 63.1829 183.002 70.1539 175.903M194.502 189.084C201.474 196.184 212.78 196.185 219.753 189.085C226.726 181.986 226.966 170.231 219.992 163.13M194.502 189.084L141.79 135.415M113.362 183.818C120.335 176.719 120.097 165.274 113.122 158.174C106.151 151.075 94.6039 150.828 87.6309 157.93M70.1539 175.903L87.6309 157.93M70.1539 175.903C63.1809 183.002 51.6349 182.758 44.6629 175.658C39.8679 170.777 38.3709 163.811 40.1689 157.627C40.2309 157.412 40.2979 157.198 40.3689 156.985M219.992 163.13C226.965 170.229 238.271 170.231 245.243 163.131C249.384 158.917 251.173 153.149 250.485 147.671M219.992 163.13L167.345 109.707M87.6309 157.93C94.6029 150.831 94.6049 139.32 87.6319 132.221C80.6589 125.121 69.3539 124.811 62.3799 131.91L44.6629 149.949C42.6509 151.997 41.2199 154.413 40.3689 156.985M40.3689 156.985L29.4969 145.788C-1.46807 114.261 -5.78905 58.7477 25.176 27.2222C57.383 -5.56995 108.234 -2.5477 139.486 29.4493M139.486 29.4493L111.611 59.365C102.753 69.2819 85.4949 82.9416 95.4059 96.1888C103.606 107.149 126.132 99.0027 136.239 88.5466L166.781 57.4236M139.486 29.4493C170.452 -2.07764 220.889 0.754686 251.854 32.2809C282.82 63.8079 282.663 115.4 251.697 146.927L250.485 147.671M250.485 147.671C250.015 143.921 248.382 140.308 245.548 137.423L167.287 57.7421" stroke="white" stroke-width="7" stroke-linecap="round" stroke-linejoin="round"/>
</g>
<defs>
<clipPath id="clip0_201_72">
<rect width="825" height="263" fill="white"/>
</clipPath>
</defs>
</svg>
